<svg width="102" height="89" viewBox="0 0 102 89" fill="none" xmlns="http://www.w3.org/2000/svg">
<path fill-rule="evenodd" clip-rule="evenodd" d="M17.8185 65.6211C18.4712 65.5012 18.4545 64.7017 18.3905 63.9376C18.2816 62.6416 18.2274 63.0536 17.4424 62.6414C17.4789 61.7843 16.8601 58.0747 16.5406 57.5773C15.8889 56.5632 16.5159 58.0017 16.1641 57.1751C16.1184 54.4863 15.5727 51.2059 16.1572 48.6615C16.4371 47.4424 16.4284 46.1208 16.6972 44.8121L17.4047 41.0238L18.1674 40.8225C18.5805 41.4446 21.0145 43.9058 21.3401 44.9234L22.0605 44.9571C22.2389 43.7375 23.1677 42.6379 23.2806 41.5183L23.1683 40.34L20.4023 37.2818C19.9035 36.3428 19.9863 36.3468 20.0403 35.1138C22.9171 34.0044 22.5425 35.7397 24.0065 37.2308C24.5423 37.7763 24.6979 37.5035 24.8181 38.5909H25.239C25.8022 38.288 27.9529 35.7114 29.4285 34.6444C31.3096 33.2837 32.6255 32.5407 34.8939 31.5718C39.1959 29.7342 43.6108 28.9615 48.6907 28.3617C58.9788 27.1465 66.2886 28.4402 75.8304 29.8087C76.9894 29.975 78.6197 30.024 79.2307 30.937C78.8297 31.1967 78.9878 31.2661 77.5959 30.9718C67.67 28.8731 58.4543 28.9768 48.4629 29.452C43.8714 29.6703 38.7281 31.0694 35.0896 32.6804C32.1491 33.9824 27.0047 37.482 25.9463 40.044C26.1141 41.2926 26.9986 41.389 28.2193 43.0663L28.7909 43.827C29.4467 44.6252 31.1414 46.2265 32.2888 47.7621C32.6008 48.1794 32.7446 48.3278 33.0891 48.7005L38.9265 55.3832L44.126 55.3903C44.2138 57.3439 43.234 59.3167 43.4841 61.0803C44.0555 59.5693 44.0845 56.8268 44.859 55.5444C46.1195 55.1082 50.534 55.3095 52.1898 55.4626L52.2827 56.3239L52.0702 58.3487C52.11 58.34 52.6895 58.0822 52.7475 58.0523C53.3144 57.0616 54.4944 56.17 55.7747 55.7056C58.3014 54.789 58.991 56.0557 60.2567 56.0062C61.647 55.9517 62.5204 54.7799 64.7976 55.7421C66.1994 56.3339 66.7524 57.3143 67.2337 58.7411C68.2406 58.3633 67.8804 57.9463 68.7805 57.2618C70.1763 55.4361 71.6056 56.0093 72.7278 55.2071C70.4549 53.2254 67.4325 51.1848 65.0743 49.3341L57.3166 43.6226C56.4999 43.6565 54.7039 42.487 54.6664 42.4486C53.8635 41.4533 54.8285 41.0974 52.7341 41.1165C52.5717 42.7114 54.0516 46.3926 50.5563 47.2686C49.4063 47.5555 50.0087 48.7604 49.3308 50.1984C46.1623 56.9188 32.1069 53.8499 36.8075 43.5541C37.1844 42.7288 37.1602 42.5863 37.7356 42.2413C38.0856 42.6524 37.9358 41.6905 37.9701 42.885C38.3633 42.4584 38.2811 40.9569 38.5997 39.938C38.9154 38.9281 39.384 38.118 40.0323 37.3851C40.7607 36.5619 43.443 34.3052 44.4981 34.4341C45.0921 33.7392 46.2101 33.431 47.1631 33.3461L47.108 34.0021L47.687 33.9451C47.4042 35.3471 46.1623 33.8904 47.366 36.6231C47.7399 37.4719 47.5247 37.2741 48.2303 37.7441L49.4231 38.551C49.4528 38.5736 49.513 38.6212 49.5573 38.657C49.9175 38.3547 49.6949 38.6361 49.8924 37.9876C53.0403 37.6847 57.4311 37.6814 61.0588 37.7984C60.664 36.3455 57.4165 33.8482 59.2881 31.6794C61.9044 28.648 73.8906 31.1375 77.7839 32.2119C79.3679 32.6489 80.5428 32.2215 80.9648 33.686C76.2399 33.3268 63.689 28.4037 60.2671 32.686C59.7647 33.8853 62.018 36.6337 62.8573 37.3541C63.5793 37.9736 63.5226 37.8818 64.6459 37.8774C67.8069 37.8654 71.139 38.0661 74.2667 37.9383C75.9989 37.8763 77.8096 37.9374 79.5499 37.955C80.778 37.9678 83.5194 37.5091 83.8977 38.6363C85.5466 39.5123 85.4736 41.6825 85.8913 42.7874L86.5553 43.7135C86.7738 43.3716 86.7456 43.2388 86.6197 42.4765C86.2967 40.5179 86.0771 41.7369 85.7817 39.8441C85.6819 39.2057 85.6513 38.7144 85.6746 38.0907C85.5967 36.8841 83.5663 33.1569 82.8114 31.8139C79.7522 26.3691 73.827 21.2166 68.2191 18.2145C64.0658 15.991 59.1333 14.7421 53.6711 14.1998C49.1007 13.7457 40.9327 15.2844 37.5072 16.768C28.4482 20.6913 22.7463 26.4 18.2507 34.8746C14.9641 41.0704 13.7286 51.335 15.4424 58.7363C15.7483 60.0573 17.2816 64.9205 17.8185 65.6211Z" fill="#0E2F74"/>
<path fill-rule="evenodd" clip-rule="evenodd" d="M50.796 58.8148L47.7252 58.937C47.1385 59.7294 46.6231 63.1472 46.678 64.4427L49.6256 64.5201L49.2673 66.9615L46.1518 67.1173C45.7615 67.7648 44.8731 73.5517 44.649 75.0151L42.1219 75.1636C42.1569 73.6473 45.1763 57.1745 45.64 56.5368C46.4551 56.049 49.8237 56.2916 51.0732 56.3444L50.796 58.8148ZM28.3491 67.2792L30.6617 67.2446C30.7488 69.1261 29.7248 70.6496 30.37 72.4019C33.337 73.2559 33.2469 70.1711 34.0481 65.458C34.4809 62.9109 35.0395 58.5203 35.8119 56.3666L38.1336 56.339C38.2279 57.3638 35.6339 71.0871 35.1245 72.2362C34.2482 74.2122 31.3005 76.2731 28.8136 74.6208C26.7045 73.2194 27.7332 69.6363 28.3491 67.2792ZM37.2482 75.159C37.1435 73.5457 38.4905 67.4788 38.9069 65.485C39.5035 62.6253 40.0005 59.2946 40.672 56.3364L43.1365 56.4193L39.7098 75.1005L37.2482 75.159ZM33.0932 65.497C32.8551 66.6617 32.6237 67.716 32.4134 68.9171C32.174 70.284 32.3131 71.3201 31.1703 71.5877C30.8847 70.1044 31.8528 67.9652 31.693 66.861C31.5028 65.5458 27.4869 66.497 27.4463 66.5132C26.3443 71.7043 26.1082 71.754 27.6963 75.2302C28.3487 75.3986 28.5378 75.8547 29.6405 76.0487C30.65 76.2261 31.7667 76.1312 32.5761 75.8851C34.043 75.4388 35.02 74.4024 35.8643 73.126C36.1814 71.5779 36.6335 70.1186 36.9283 68.341L37.5929 64.6383C37.8511 63.4364 37.5571 64.0188 38.3072 63.6334C38.3226 65.0673 37.5181 68.0679 37.242 69.616C36.9487 71.2594 36.2157 73.9441 36.2365 75.9221C41.0559 76.5929 40.5028 75.8572 41.0147 72.8936L42.8294 63.1408C43.3344 63.6873 43.0922 63.1543 43.1363 63.9031C43.1921 64.8576 40.9286 73.5908 41.2374 76.0341L45.2904 76.1235L46.2131 71.7176L46.9293 68.1063L49.3482 68.053C49.7542 67.9716 49.7969 67.904 50.0624 67.8306L49.9028 70.9782C49.6065 72.3773 48.9492 74.4872 49.022 76.0846L53.1802 76.1576L53.1658 75.9897C53.437 74.7109 53.9083 73.8574 54.0869 72.4806C54.2231 71.4307 54.1273 70.0252 54.7505 69.2925C54.8373 68.0098 55.1547 66.366 55.4532 64.9737C56.0522 62.182 55.588 61.5943 56.9262 61.6038C57.0294 63.2528 55.2234 69.8687 55.2583 71.5383C55.1831 72.2711 54.9586 73.032 54.8403 73.5972C54.1866 76.7163 54.729 75.6148 55.0305 75.9778H56.1241C56.0868 75.8955 56.0367 75.8157 55.9902 75.7416C55.1917 74.4643 55.1715 75.1406 55.7046 73.5876L58.0792 61.2852C58.4447 59.3667 57.5039 58.0598 56.0376 59.279C55.0608 60.0912 54.3715 65.5613 54.085 67.1016C53.8005 68.6302 52.9966 74.1634 52.4035 75.1679L50.1874 75.1432C50.0885 72.7635 51.9783 65.158 52.3912 62.5991C52.7303 60.5003 52.9408 58.8356 54.505 57.5281C57.2827 55.2071 59.306 56.9676 59.7523 57.0944C60.9148 57.425 62.8751 55.1925 65.1986 57.0891C66.815 58.4084 66.1506 60.6945 65.7337 62.7976C64.8834 67.0887 64.3365 70.9492 63.4809 75.1102L61.0979 75.1434C60.9973 72.0021 64.4468 60.7675 63.2661 59.1429C60.5057 57.7277 60.1651 63.4239 59.8162 65.4207C59.4784 67.3533 58.2521 72.5855 58.354 74.1441C58.2484 74.8834 58.4439 74.8086 57.8526 75.2173C57.2234 75.6525 57.3544 75.1623 57.006 76.1824L58.717 76.0042C59.1087 75.2692 59.23 74.4392 59.3177 73.336C59.7073 72.6005 60.7923 65.6199 61.105 63.8665C61.3363 62.5703 61.1085 61.3185 62.255 61.0156C62.9945 62.4353 59.6013 73.8195 59.9763 76.0711L68.5183 76.1581C68.9544 75.253 69.227 73.2486 69.4453 72.0316C69.6089 71.1181 69.8577 68.4834 70.5739 68.0209C71.0797 68.3162 71.1147 68.0761 70.8022 69.8744C69.7643 75.8498 68.1203 76.8365 74.2487 76.0798L74.95 71.4507L74.5301 71.3871C74.7541 70.5015 75.0025 68.9155 74.852 68.1945C74.0537 69.1812 74.0258 74.1386 73.281 74.9559C72.8703 75.3896 71.68 75.2589 70.9345 75.1964L72.2159 67.2247L69.4276 67.1535C68.8907 69.1384 68.5927 73.4637 67.8096 75.1772C64.602 75.5208 65.3356 75.5463 67.016 66.0147C67.8924 61.0446 67.5539 60.8517 69.6759 57.3947C68.437 57.6212 69.0189 58.1144 68.7806 57.2618C67.8805 57.9463 68.2407 58.3633 67.2338 58.741C66.7525 57.3142 66.1995 56.3339 64.7977 55.742C62.5205 54.7799 61.6471 55.9517 60.2568 56.0062C58.9911 56.0557 58.3015 54.789 55.7748 55.7056C54.4945 56.1699 53.3145 57.0616 52.7476 58.0523C52.4352 58.7319 52.1377 60.3078 51.5623 60.707L51.624 60.9619L51.5089 62.7514L51.09 63.9638C48.5467 63.3399 49.5669 63.7683 47.8051 63.5171C47.6809 62.7075 47.5817 62.8299 48.0681 62.4931C48.1079 61.9056 48.1777 61.6861 48.1826 61.3437C48.185 61.1801 48.1294 60.8659 48.1556 60.5885L48.4593 59.779L51.5742 59.6159C51.6119 58.9044 51.6606 58.643 51.8279 57.9046C51.982 57.2246 51.9472 56.8587 52.2827 56.3238L52.1899 55.4626C50.5341 55.3094 46.1195 55.1081 44.8591 55.5444C44.0845 56.8268 44.0555 59.5693 43.4841 61.0803C43.2341 59.3167 44.2138 57.3439 44.1261 55.3903L38.9266 55.3832L36.8106 55.4597L34.9735 55.4739C34.4926 56.147 34.105 59.4347 33.977 60.475C33.8349 61.6293 33.5843 61.9619 33.4149 63.0271C33.3394 63.5026 33.2008 65.2192 33.0932 65.497Z" fill="#E9DBD3"/>
<path fill-rule="evenodd" clip-rule="evenodd" d="M82.5229 40.195L63.3491 39.8235C62.1275 39.7964 58.8195 39.5997 57.8495 40.0234C57.4197 40.2112 57.603 40.1092 57.3281 40.3389C58.1868 42.5724 58.1299 41.4631 59.8512 42.5468L61.0432 43.5127C62.9046 45.2141 64.2174 45.6155 65.045 46.5106C68.4442 50.1853 68.2323 48.2265 69.9536 50.6221C70.3419 51.1623 70.0078 50.862 70.5983 51.1988L77.6948 56.4133C80.2186 57.7742 77.8257 56.7751 80.2514 58.4349C80.7137 58.7515 82.7509 59.9701 83.0302 60.2894C83.4907 60.8156 83.6521 61.8333 84.5417 58.9369C85.5184 55.7563 85.582 49.4534 84.9234 46.5341C84.655 45.345 84.3938 42.1484 83.5437 41.1478L82.5229 40.195Z" fill="#F7921B"/>
<path fill-rule="evenodd" clip-rule="evenodd" d="M46.2143 71.7175L45.2916 76.1235L41.2386 76.034C34.7566 76.7745 36.0294 76.4863 36.249 73.1365C36.0052 72.9955 36.553 72.7283 35.8654 73.1259C35.0212 74.4023 34.0442 75.4388 32.5773 75.885C31.7679 76.1311 30.6512 76.226 29.6417 76.0486C28.539 75.8546 28.3499 75.3985 27.6975 75.2302C27.1285 75.3916 27.5655 75.3131 27.6654 76.1976C27.2219 76.728 28.3386 76.6337 26.8691 76.6337C28.1748 77.1967 29.8423 78.7146 30.9069 79.5312C32.2769 80.5819 31.8959 80.7367 33.3214 81.4513C37.6116 83.6029 40.3392 84.8403 45.3646 85.8088C49.4849 86.6032 57.0767 86.2167 60.9186 84.7176C61.2866 84.5738 61.7646 84.3327 62.1615 84.2175C62.6751 84.0691 63.1082 84.0836 63.6634 83.9215C65.4462 83.4011 67.4029 82.1082 68.504 81.9415L68.3083 81.7317C67.6805 82.1949 66.9185 82.1621 66.3909 82.3532L65.966 82.5534C65.071 82.9676 62.2593 83.7749 61.3804 83.7071C61.4998 83.6638 61.6085 83.9013 61.3258 83.033L59.7946 83.0259C59.0101 81.8752 59.7723 82.2628 59.2452 81.416L58.3703 80.5296C58.324 80.4839 57.9505 80.1251 57.9003 80.083C56.7194 79.0868 57.4045 79.6294 56.7417 78.6897C56.5256 78.3831 56.5573 78.4782 56.3393 78.1882C55.8701 77.564 56.2175 77.7935 55.5154 77.2334C55.4488 77.1805 54.4922 76.5259 54.4663 76.5135C53.6507 76.1277 53.9936 76.484 53.1814 76.1575L49.0231 76.0845C48.9504 74.4872 49.6077 72.3773 49.904 70.9781C49.1342 70.9463 49.8181 71.0585 49.4012 70.3164L48.1977 68.7675C46.7339 68.0522 46.8205 70.4709 46.5825 71.0727C46.3423 71.6793 46.3596 71.516 46.2143 71.7175Z" fill="#248945"/>
<path fill-rule="evenodd" clip-rule="evenodd" d="M83.8975 38.6361C84.2056 41.7065 86.1373 44.544 86.1337 51.0511C86.1289 59.3845 84.6496 60.3224 84.3015 62.3042C84.1928 62.9208 84.5034 62.2541 84.1959 62.9498L84.0928 63.4325C83.3429 64.2249 83.8103 63.4172 83.5172 64.3163C82.8519 66.3548 82.9126 65.0526 82.4253 66.6377C82.2614 67.1709 82.269 67.3723 82.066 67.7989L79.6209 71.7003C78.961 72.7665 75.818 75.94 74.7898 76.9054L74.4483 77.228C73.6479 78.0714 73.9871 78.2124 73.1192 78.4869C72.641 79.1087 71.4066 80.143 70.4672 80.4223L68.3069 81.7316L68.5025 81.9414C67.4015 82.1081 65.4447 83.4011 63.662 83.9215C63.1068 84.0836 62.6737 84.069 62.1601 84.2175C61.7632 84.3326 61.2852 84.5738 60.9171 84.7175C57.0753 86.2166 49.4835 86.6031 45.3631 85.8088C40.3378 84.8403 37.6101 83.6029 33.32 81.4513C31.8945 80.7367 32.2755 80.5818 30.9054 79.5312C29.8409 78.7146 28.1734 77.1967 26.8677 76.6336C26.4667 76.0207 26.7506 76.4735 26.5281 75.8546C25.8261 74.946 25.0218 74.2999 24.4477 72.9627C23.1238 72.3446 21.0281 68.7893 20.1291 67.1213C19.0576 65.1331 18.1182 61.9802 17.4808 59.612C16.4308 55.7122 16.1565 43.4647 18.0542 41.6317L18.1672 40.8223L17.4045 41.0236L16.6971 44.8119C16.4282 46.1207 16.437 47.4422 16.157 48.6614C15.5725 51.2057 16.1182 54.4862 16.164 57.1749C16.5158 58.0016 15.8887 56.5631 16.5404 57.5771C16.8599 58.0746 17.4787 61.7842 17.4423 62.6412C18.2272 63.0534 18.2814 62.6414 18.3903 63.9374C18.4543 64.7016 18.4711 65.5011 17.8183 65.6209C18.3367 68.3467 23.368 74.8125 25.1568 76.5245C36.3453 87.2331 50.613 90.4891 65.1953 84.8164C68.6516 83.4719 73.9669 80.2592 76.2977 77.7635C77.961 75.9826 79.1711 74.8937 80.6006 73.1011C81.984 71.3657 82.7766 69.7198 84.0305 67.5559C86.3162 63.6099 87.4984 58.9358 88.0303 53.6415C88.3912 50.049 87.4222 40.0617 85.6744 38.0906C85.6511 38.7143 85.6817 39.2055 85.7815 39.844C86.077 41.7368 86.2966 40.5178 86.6195 42.4763C86.7454 43.2386 86.7737 43.3714 86.5552 43.7133L85.8911 42.7873C85.4735 41.6823 85.5464 39.5121 83.8975 38.6361Z" fill="#2D2E53"/>
<path fill-rule="evenodd" clip-rule="evenodd" d="M55.7046 73.5876L55.6166 74.8844C56.4255 75.2645 56.8658 75.1714 57.8765 75.0033L58.354 74.1441C58.252 72.5856 59.4784 67.3534 59.8161 65.4207C60.165 63.4239 60.5057 57.7277 63.2661 59.1429C64.4468 60.7675 60.9972 72.0021 61.0979 75.1434L63.4809 75.1102C64.3365 70.9493 64.8834 67.0887 65.7337 62.7977C66.1506 60.6945 66.815 58.4084 65.1986 57.0891C62.875 55.1925 60.9148 57.425 59.7523 57.0944C59.306 56.9676 57.2827 55.2071 54.505 57.5281C52.9407 58.8356 52.7303 60.5003 52.3912 62.5991C51.9783 65.158 50.0885 72.7635 50.1873 75.1432L52.4035 75.168C52.9966 74.1634 53.8005 68.6302 54.085 67.1016C54.3715 65.5613 55.0607 60.0912 56.0376 59.279C57.5039 58.0598 58.4446 59.3668 58.0791 61.2852L55.7046 73.5876Z" fill="#222121"/>
<path fill-rule="evenodd" clip-rule="evenodd" d="M49.8926 37.9875C50.3932 38.1773 56.4665 42.5517 57.3168 43.6225L65.0745 49.3339C67.4327 51.1846 70.4551 53.2253 72.728 55.207C71.6058 56.0092 70.1765 55.4359 68.7807 57.2617C69.0191 58.1143 68.4371 57.6211 69.676 57.3946C70.7781 57.1919 71.2219 56.0573 73.6457 56.4452C75.0954 56.6775 75.9588 57.8012 76.1011 59.1484C76.3754 61.7529 74.6191 65.6987 74.8521 68.1944C75.0026 68.9154 74.7542 70.5014 74.5302 71.3871L74.9501 71.4506C75.2804 70.6839 76.7597 60.6088 77.2784 59.3105C79.6986 59.3056 82.3969 63.36 84.0932 63.4325L84.1962 62.9498C83.9615 61.8848 83.3086 61.8172 82.4166 61.1068C75.1195 55.2975 66.7214 49.4039 59.4258 43.6093C58.8737 43.1709 58.0733 42.7379 57.4607 42.2703C56.7711 41.7443 56.4676 41.3572 55.6759 40.7903C54.3002 39.8052 54.2617 39.8333 54.0735 38.9081L83.646 39.1954C83.5969 37.9492 83.2158 38.136 81.9759 38.144C80.2904 38.1551 75.2249 38.4003 74.2669 37.9381C71.1392 38.066 67.8071 37.8653 64.6461 37.8773C63.5228 37.8817 63.5795 37.9735 62.8575 37.354C62.0182 36.6335 59.7649 33.8852 60.2673 32.6859C63.6892 28.4036 76.2401 33.3267 80.965 33.6859C80.543 32.2214 79.3681 32.6487 77.7841 32.2117C73.8908 31.1374 61.9045 28.6479 59.2883 31.6793C57.4167 33.848 60.6642 36.3454 61.059 37.7982C57.4313 37.6813 53.0405 37.6846 49.8926 37.9875Z" fill="#FDFDFE"/>
<path fill-rule="evenodd" clip-rule="evenodd" d="M74.9496 71.4506L74.2484 76.0797C73.6719 76.7623 74.8247 76.3249 73.2104 76.6016L62.4724 76.5821C60.4341 76.6 60.1522 76.2548 59.421 76.2655C59.3876 76.2659 59.284 76.3462 59.2596 76.2934C59.2348 76.2389 59.1461 76.3063 59.0954 76.3302C58.2377 77.1441 60.0555 78.2804 60.3092 78.5791C61.1824 79.6064 60.9486 79.9904 61.6723 80.3117C62.7336 80.7823 65.4474 79.5742 67.4893 79.2121C68.6143 79.0128 72.2168 77.02 72.7687 78.119L73.1191 78.4869C73.987 78.2124 73.6478 78.0714 74.4483 77.228L74.7897 76.9055C75.818 75.94 78.9609 72.7665 79.6208 71.7004L82.066 67.799C82.2689 67.3724 82.2613 67.1709 82.4252 66.6377C82.9126 65.0526 82.8518 66.3549 83.5172 64.3164C83.8102 63.4172 83.3428 64.2249 84.0928 63.4325C82.3964 63.36 79.6981 59.3056 77.2779 59.3106C76.7592 60.6088 75.2799 70.684 74.9496 71.4506Z" fill="#248945"/>
<path fill-rule="evenodd" clip-rule="evenodd" d="M22.2667 49.4454C22.1565 56.102 22.0852 59.2608 23.6994 65.5234L24.93 69.784C26.244 70.448 24.7197 70.289 26.1328 70.5591C27.6181 68.0051 24.5504 65.893 29.8575 65.9448L32.0713 66.0067C33.2788 65.8522 32.5508 63.9146 32.9956 62.8334C32.6554 61.927 31.1468 60.3195 30.5019 59.3717C29.6757 58.1582 28.7373 57.0033 27.869 55.8771L22.63 48.9878C22.2616 49.8783 22.6535 48.9721 22.2667 49.4454Z" fill="#248945"/>
<path fill-rule="evenodd" clip-rule="evenodd" d="M25.2386 38.5908L25.0504 38.9329C24.7453 39.5719 23.8681 41.0155 23.3618 41.4421L23.2802 41.5182C23.1673 42.6377 22.2385 43.7374 22.0601 44.9569C21.7904 46.0072 21.4991 45.4795 21.3435 46.7801C20.5839 54.5305 20.2263 52.396 21.2702 60.7119C21.5257 62.7464 22.1617 65.3792 22.6352 67.0361C23.1666 68.8961 24.1849 71.1963 24.4475 72.9627C25.0216 74.2999 25.8259 74.946 26.5279 75.8546L27.0172 75.8522C26.6621 73.9485 25.3061 72.1029 24.9295 69.7841L23.699 65.5235C22.0847 59.2608 22.156 56.1021 22.2662 49.4454C22.2649 48.5629 22.3069 48.1933 22.4873 47.5641C22.5367 47.392 22.6746 46.912 22.6848 46.8796C22.906 46.1774 22.4991 46.6406 22.9769 46.185C23.2894 45.0127 23.361 44.4855 23.9016 43.6787L24.9136 41.4475L25.5797 40.4355C25.8192 40.1433 25.6953 40.2674 25.9459 40.0438C27.0043 37.4818 32.1487 33.9823 35.0892 32.6802C38.7277 31.0693 43.8711 29.6701 48.4625 29.4519C58.4539 28.9767 67.6696 28.873 77.5955 30.9716C78.9874 31.266 78.8293 31.1966 79.2303 30.9368C78.6194 30.0239 76.9891 29.9749 75.83 29.8086C66.2882 28.44 58.9784 27.1464 48.6903 28.3615C43.6104 28.9614 39.1955 29.7341 34.8935 31.5717C32.6251 32.5405 31.3092 33.2835 29.4281 34.6442C27.9525 35.7113 25.8018 38.2879 25.2386 38.5908Z" fill="#FDFDFE"/>
<path fill-rule="evenodd" clip-rule="evenodd" d="M73.2334 62.2933L72.875 64.4821C71.9656 64.7691 70.8737 64.7728 69.9545 64.5569C69.6932 63.6254 69.798 63.8199 69.9872 62.8707C70.1986 61.808 70.0847 62.004 70.5555 61.5173C70.3558 60.249 71.6357 57.9192 73.0876 59.2351C73.8493 59.9767 73.2797 61.1954 73.2334 62.2933ZM69.6762 57.3946C67.5542 60.8515 67.8927 61.0444 67.0164 66.0145C65.3359 75.5462 64.6024 75.5207 67.8099 75.1771C68.5931 73.4636 68.8911 69.1383 69.428 67.1534L72.2162 67.2246L70.9348 75.1962C71.6804 75.2587 72.8706 75.3895 73.2813 74.9558C74.0262 74.1385 74.0541 69.1811 74.8524 68.1944C74.6193 65.6987 76.3756 61.7528 76.1013 59.1484C75.9591 57.8012 75.0957 56.6775 73.6459 56.4452C71.2221 56.0572 70.7783 57.1919 69.6762 57.3946Z" fill="#222121"/>
<path fill-rule="evenodd" clip-rule="evenodd" d="M24.4486 72.9629C24.186 71.1965 23.1678 68.8962 22.6363 67.0363C22.1629 65.3794 21.5269 62.7465 21.2714 60.712C20.2274 52.3961 20.5851 54.5306 21.3447 46.7803L20.2252 45.5853C19.8207 45.1172 19.6584 44.9849 19.3247 44.5122C18.0493 42.7069 17.8521 43.0087 18.0551 41.6318C16.1574 43.4649 16.4317 55.7124 17.4817 59.6122C18.1191 61.9804 19.0586 65.1333 20.13 67.1215C21.029 68.7895 23.1247 72.3448 24.4486 72.9629Z" fill="#248945"/>
<path fill-rule="evenodd" clip-rule="evenodd" d="M40.1259 44.5116C40.3229 44.7387 40.1055 44.3999 40.386 44.9336L41.2638 47.5543C41.0422 47.786 40.823 48.0927 40.5826 48.38C38.9169 48.3672 40.0608 48.1013 38.5763 47.3847C38.1582 47.183 38.5168 47.3086 38.0227 47.1871C37.6614 49.0574 38.2077 48.4507 38.2881 50.101L39.3869 51.5131C41.1799 53.6348 48.0606 53.1725 48.7847 49.5452C48.4775 49.3248 48.5625 49.5112 48.5877 49.0112C48.2067 48.0208 48.2231 46.8259 47.4819 45.9065C46.9023 45.187 46.2207 44.5374 45.6701 43.7738C45.2412 43.1791 45.318 43.0035 44.8117 42.4545L41.8961 39.4646C39.767 40.4306 40.2459 43.3656 40.1259 44.5116Z" fill="#EE5126"/>
<path fill-rule="evenodd" clip-rule="evenodd" d="M23.9035 43.6787C23.3629 44.4854 23.2912 45.0126 22.9788 46.1849C22.8362 47.1997 23.3116 47.5045 23.8154 48.1254L30.7174 57.1763C31.2839 57.9742 32.8611 60.3092 33.5777 60.7315C33.7292 60.53 33.7033 60.6134 33.8494 60.2666C34.1987 59.4358 34.0956 58.785 34.2811 58.0237C34.4389 57.376 34.5904 55.9067 34.9749 55.4737L36.812 55.4595L36.9039 55.4244H35.9857L32.1088 50.786C32.0745 50.7539 32.024 50.7131 31.9895 50.6814C31.0351 49.8018 29.9735 48.2917 29.2735 47.2604C28.7461 46.4831 28.2239 46.4946 27.8281 45.8756C27.4015 45.2079 27.8566 45.4064 27.161 44.9479C26.5026 44.5138 26.691 45.1498 25.9584 44.0402C25.9312 43.9993 25.9009 43.9406 25.873 43.8993L25.6815 43.6328C25.484 43.375 25.3474 43.3001 25.1172 42.9324C24.4234 43.3158 24.8648 43.438 23.9035 43.6787Z" fill="#0E2F74"/>
<path fill-rule="evenodd" clip-rule="evenodd" d="M57.3294 40.3391C57.6042 40.1094 57.4209 40.2114 57.8508 40.0236C58.8207 39.5999 62.1287 39.7966 63.3503 39.8238L82.5242 40.1952L83.545 41.148C84.3951 42.1486 84.6562 45.3452 84.9247 46.5344C85.5833 49.4536 85.5196 55.7565 84.543 58.9371C83.6533 61.8335 83.4919 60.8158 83.0314 60.2896C82.7522 59.9703 80.715 58.7517 80.2526 58.4351C77.827 56.7753 80.2198 57.7744 77.696 56.4135L70.5996 51.199C70.009 50.8622 70.3432 51.1625 69.9549 50.6223C68.2336 48.2268 68.4455 50.1855 65.0463 46.5109C64.2186 45.6157 62.9058 45.2143 61.0444 43.5129L59.8524 42.547C58.1311 41.4633 58.188 42.5727 57.3294 40.3391ZM84.197 62.95C84.5045 62.2543 84.1939 62.921 84.3026 62.3044C84.6507 60.3226 86.13 59.3846 86.1348 51.0512C86.1384 44.5441 84.2067 41.7067 83.8986 38.6363C83.5204 37.5091 80.779 37.9678 79.5508 37.955C77.8105 37.9374 75.9999 37.8763 74.2676 37.9383C75.2257 38.4004 80.2911 38.1552 81.9767 38.1441C83.2165 38.1361 83.5977 37.9494 83.6467 39.1955L54.0742 38.9083C54.2624 39.8334 54.3009 39.8054 55.6766 40.7905C56.4683 41.3573 56.7718 41.7444 57.4614 42.2705C58.074 42.7381 58.8745 43.171 59.4265 43.6095C66.7222 49.404 75.1202 55.2976 82.4173 61.1069C83.3093 61.8173 83.9623 61.8849 84.197 62.95Z" fill="#D2944E"/>
<path fill-rule="evenodd" clip-rule="evenodd" d="M28.3489 67.2791C27.733 69.6362 26.7044 73.2193 28.8134 74.6207C31.3004 76.273 34.248 74.2121 35.1244 72.2361C35.6338 71.087 38.2278 57.3637 38.1335 56.3389L35.8118 56.3665C35.0394 58.5202 34.4808 62.9108 34.048 65.4579C33.2468 70.171 33.3369 73.2558 30.3699 72.4018C29.7246 70.6495 30.7487 69.126 30.6615 67.2445L28.3489 67.2791Z" fill="#222121"/>
<path fill-rule="evenodd" clip-rule="evenodd" d="M51.0743 56.3443C49.8248 56.2915 46.4562 56.0488 45.6412 56.5367C45.1774 57.1744 42.1581 73.6472 42.123 75.1635L44.6501 75.015C44.8743 73.5516 45.7626 67.7647 46.1529 67.1171L49.2684 66.9614L49.6267 64.5199L46.6791 64.4425C46.6242 63.147 47.1396 59.7293 47.7263 58.9369L50.7971 58.8147L51.0743 56.3443Z" fill="#222121"/>
<path fill-rule="evenodd" clip-rule="evenodd" d="M37.248 75.159L39.7096 75.1006L43.1363 56.4193L40.6718 56.3364C40.0003 59.2946 39.5033 62.6253 38.9067 65.485C38.4903 67.4788 37.1433 73.5457 37.248 75.159Z" fill="#222121"/>
<path fill-rule="evenodd" clip-rule="evenodd" d="M59.3172 73.336C59.2147 74.1004 59.204 74.8235 58.9895 75.4033C58.7101 76.1578 58.6831 76.0419 58.1396 76.4385C58.1035 76.4649 58.03 76.515 57.9997 76.5365C57.9689 76.5583 57.8996 76.597 57.8555 76.6349C58.6193 77.8937 59.2598 78.518 60.2813 79.7C61.8069 81.4649 61.9895 81.014 64.2105 80.49L70.7221 78.7885C71.638 78.571 72.3515 78.7225 72.7686 78.1191C72.2167 77.0201 68.6141 79.0129 67.4892 79.2122C65.4473 79.5743 62.7334 80.7823 61.6721 80.3118C60.9485 79.9905 61.1823 79.6065 60.309 78.5792C60.0553 78.2804 58.2375 77.1442 59.0953 76.3303C59.146 76.3064 59.2346 76.239 59.2594 76.2935C59.2839 76.3463 59.3875 76.266 59.4208 76.2656C60.152 76.2549 60.434 76.6001 62.4723 76.5822L73.2103 76.6017C74.8245 76.325 73.6717 76.7624 74.2482 76.0798C68.1199 76.8365 69.7638 75.8498 70.8018 69.8744C71.1142 68.0761 71.0792 68.3162 70.5734 68.0209C69.8572 68.4834 69.6084 71.1181 69.4449 72.0316C69.2265 73.2486 68.9539 75.253 68.5178 76.1582L59.9758 76.0711C59.6009 73.8195 62.994 62.4353 62.2545 61.0156C61.108 61.3185 61.3358 62.5703 61.1046 63.8665C60.7918 65.6199 59.7068 72.6005 59.3172 73.336Z" fill="#4B7253"/>
<path fill-rule="evenodd" clip-rule="evenodd" d="M92.3692 48.6475C93.1121 49.1983 95.634 48.9808 96.8447 48.9827C98.5255 48.9852 100.281 48.4067 100.099 50.1585C98.8492 50.7018 93.875 50.1621 93.1168 50.3353C92.4327 50.4918 92.6831 50.2403 92.3634 50.8341C92.1922 52.4026 98.7035 50.8973 99.9576 51.711C100.654 52.1629 100.133 52.8802 99.262 52.9832C96.9784 53.2537 93.1983 52.5223 92.5602 53.1839C91.3082 54.4817 94.8102 54.167 95.7499 54.177C98.7187 54.2083 101.747 54.9291 101.308 51.6152C100.968 49.045 103.105 47.7921 97.2824 47.7371C93.343 47.6998 92.4949 47.1622 92.3692 48.6475Z" fill="#222121"/>
<path fill-rule="evenodd" clip-rule="evenodd" d="M86.9019 81.1303C88.1786 80.7006 89.789 82.5063 89.0148 83.2353C88.4846 83.7346 86.2546 82.6572 86.9019 81.1303ZM87.8448 79.2831C86.6763 78.2202 84.6484 76.1019 83.6067 76.3085C83.2156 77.5107 83.845 77.6473 84.6347 78.3222C85.1875 78.7947 85.9161 79.2696 86.1481 79.9144C85.8592 80.3095 85.8197 80.35 85.4605 80.674C84.7183 80.4961 85.0495 80.6451 84.3865 80.0928C83.4939 79.3494 82.8917 78.4942 81.9307 78.3541L81.3535 79.0401C81.6769 79.8971 84.3812 81.8622 85.3137 82.6845C86.2891 83.5443 88.6115 86.1074 90.1917 83.9745C91.71 81.9249 88.8173 80.1678 87.8448 79.2831Z" fill="#222121"/>
<path fill-rule="evenodd" clip-rule="evenodd" d="M22.2676 49.4454C22.6544 48.9722 22.2625 49.8784 22.6309 48.9879L27.87 55.8772C28.7383 57.0034 29.6767 58.1583 30.5028 59.3718C31.1477 60.3195 32.6564 61.9271 32.9965 62.8335C33.1829 63.0418 33.1092 62.7515 33.2519 63.3273C33.3472 63.712 33.3327 63.7628 33.3179 64.1701C33.3007 64.6413 33.2287 65.1241 33.0941 65.4969C33.2017 65.2191 33.3403 63.5025 33.4158 63.0271C33.5853 61.9619 33.8358 61.6292 33.9779 60.4749C34.106 59.4346 34.4935 56.1469 34.9745 55.4739C34.59 55.9068 34.4384 57.3761 34.2807 58.0238C34.0952 58.7851 34.1982 59.4359 33.849 60.2667C33.7029 60.6135 33.7288 60.5301 33.5772 60.7316C32.8607 60.3094 31.2834 57.9743 30.717 57.1765L23.8149 48.1255C23.3112 47.5046 22.8357 47.1998 22.9783 46.1851C22.5005 46.6406 22.9074 46.1774 22.6862 46.8796C22.676 46.912 22.5381 47.392 22.4887 47.5642C22.3083 48.1933 22.2663 48.5629 22.2676 49.4454Z" fill="#D5F24E"/>
<path fill-rule="evenodd" clip-rule="evenodd" d="M58.718 76.0041L57.6702 76.3491C57.4645 76.3728 56.8101 76.3672 56.561 76.3714C55.8402 76.3827 55.4032 76.4225 54.7988 76.2169C56.1618 76.3151 56.507 77.549 57.9887 79.1545C58.9577 80.205 60.1725 81.4885 61.0861 82.5814C62.6677 82.7165 62.6489 82.457 63.8781 82.0185L68.1801 81.1037C69.1017 80.9107 69.5022 80.6185 70.4685 80.4223C71.4079 80.1431 72.6423 79.1088 73.1205 78.4869L72.7701 78.119C72.353 78.7224 71.6395 78.5709 70.7236 78.7884L64.2121 80.4899C61.991 81.0139 61.8085 81.4648 60.2828 79.6999C59.2613 78.5179 58.6208 77.8936 57.857 76.6348C57.9011 76.5969 57.9704 76.5582 58.0013 76.5364C58.0315 76.5149 58.105 76.4648 58.1412 76.4384C58.6847 76.0418 58.7116 76.1577 58.991 75.4032C59.2055 74.8234 59.2163 74.1003 59.3188 73.3359C59.2311 74.4391 59.1098 75.2691 58.718 76.0041Z" fill="#9E713A"/>
<path fill-rule="evenodd" clip-rule="evenodd" d="M37.971 42.8849C37.4285 43.95 36.4442 44.4992 36.5625 47.3299C36.5915 48.0222 36.6209 48.4436 37.0473 49.0836C36.9829 47.622 36.5406 44.8786 37.9554 43.9935C38.7276 44.2676 38.5313 44.5844 39.3608 44.8156C39.2656 43.7707 39.2116 41.8073 39.3316 40.7768C39.5581 38.834 42.1702 36.0922 43.8723 35.3779L44.6165 35.2054L44.7465 37.605C45.2127 39.4799 44.4204 38.4208 44.8499 40.1171L44.9249 40.1023C45.6921 40.4027 46.1384 41.092 46.7766 41.5838C47.7299 42.3184 47.799 42.1827 48.4043 43.2274C49.7897 45.6192 48.9227 46.2325 49.3111 49.053L49.4853 48.2033C49.6334 45.8174 49.213 46.9475 50.6646 46.0249C49.8209 46.1848 50.3436 46.2652 49.8481 45.805C50.49 43.739 48.5512 43.2188 48.246 41.6763C47.8674 41.3444 47.2272 41.0104 47.025 40.5242C46.066 39.8679 44.7222 37.4674 46.7618 37.8183C47.6232 37.9669 46.753 37.7902 47.2533 37.9691C47.3069 37.9882 47.5781 38.1283 47.6467 38.1533C46.6518 37.8738 46.7954 36.8093 46.3983 35.939C46.2351 37.1846 46.7147 35.1517 46.3279 36.3838C46.3139 36.4283 46.2252 36.5924 46.2123 36.5583C46.1992 36.523 46.1061 36.6552 46.0551 36.7239L44.824 36.6745C44.8028 35.6415 44.7408 35.9341 45.1558 35.1309C45.522 34.9078 45.16 35.4104 45.408 34.8488C45.0177 34.5867 45.0589 34.6014 44.499 34.434C43.4439 34.3051 40.7617 36.5618 40.0332 37.3849C39.3849 38.1179 38.9163 38.928 38.6006 39.9378C38.282 40.9568 38.3642 42.4583 37.971 42.8849Z" fill="#ECCF8F"/>
<path fill-rule="evenodd" clip-rule="evenodd" d="M96.206 62.0058C97.2407 61.8919 97.9414 62.2038 98.7902 62.4213C98.7183 63.4368 98.4028 63.6954 97.3249 63.4882C96.4429 63.3184 96.1655 62.9641 96.206 62.0058ZM94.8345 61.5478C93.5591 62.4885 90.5407 60.5697 90.801 62.9725L94.875 63.0393C95.6069 64.2055 96.7576 65.0052 98.3364 64.7733C99.6884 64.5745 100.393 62.9918 100.252 61.5478C99.1783 61.0653 92.2949 59.3168 91.4951 59.4797C91.2704 60.7405 91.6772 60.5924 92.7829 60.8708C93.3414 61.0116 94.3758 61.2181 94.8345 61.5478Z" fill="#222121"/>
<path fill-rule="evenodd" clip-rule="evenodd" d="M9.15712 43.1811C9.23938 44.4891 9.07651 44.3511 6.11738 43.6906C2.84109 42.9596 2.61019 43.6445 2.93282 42.088C3.80934 41.6461 8.52572 42.6412 9.15712 43.1811ZM9.9523 45.5722C11.0659 43.2847 10.4965 41.7892 8.1201 41.3519C6.86131 41.1204 3.11593 40.075 2.10153 41.0437C1.71944 41.4087 1.13199 42.9913 1.21734 43.6232C1.30726 44.29 1.48016 44.1633 2.25236 44.2735L9.9523 45.5722Z" fill="#222121"/>
<path fill-rule="evenodd" clip-rule="evenodd" d="M89.0526 23.9402C92.4282 21.1354 92.2499 24.6473 89.5576 24.8719L89.0526 23.9402ZM84.2479 26.4775C86.1936 26.9647 86.8135 24.3599 88.3398 25.1902C88.6716 26.2816 87.5372 26.6365 86.5975 27.2533C84.9368 28.3433 85.7008 29.4109 87.235 28.3309C88.309 27.5749 91.9292 25.2931 92.4129 24.7712C93.5579 23.5362 92.6088 19.8181 88.8915 22.5422C86.9641 23.9546 84.0493 25.0758 84.2479 26.4775Z" fill="#222121"/>
<path fill-rule="evenodd" clip-rule="evenodd" d="M20.0727 17.3129C19.6015 16.797 19.3567 16.4866 18.8282 15.9196C18.4253 15.487 17.7722 15.0981 18.2796 14.5642C19.1836 13.6126 20.4298 15.66 21.0477 16.3451C21.519 16.8675 23.494 18.5272 22.6403 19.3673C22.004 19.9931 21.2525 18.6046 20.0727 17.3129ZM16.3164 14.7567C16.6449 15.4961 20.9879 20.6749 22.1927 21.2178C26.098 19.3507 23.529 17.3603 21.8896 15.4939C21.3747 14.9081 20.1801 13.2776 19.4878 13.0507C18.0069 12.5649 16.6102 14.0589 16.3164 14.7567Z" fill="#222121"/>
<path fill-rule="evenodd" clip-rule="evenodd" d="M91.5005 36.9915C92.443 36.6137 96.6649 35.1539 97.6449 35.1916C97.8743 36.2319 97.5982 36.4132 96.7113 36.7086C93.3757 37.8196 91.5758 38.8957 91.5005 36.9915ZM90.0084 36.1844C89.7864 41.0716 94.0232 38.8393 95.1464 38.466C98.5086 37.3491 99.9688 37.789 98.4129 33.5471C97.5831 33.6471 90.4096 35.9481 90.0084 36.1844Z" fill="#222121"/>
<path fill-rule="evenodd" clip-rule="evenodd" d="M94.4895 67.8889C94.5377 66.9175 94.7425 66.6412 95.7819 66.9969C96.2249 67.1485 96.8977 67.3607 97.0257 67.7334C97.458 68.9926 95.7762 68.6791 94.4895 67.8889ZM91.8596 65.5703L93.4824 66.0987L93.3519 67.1986C91.2647 67.3587 90.6207 65.6774 89.3586 66.5769C89.2895 67.578 89.1447 67.2018 89.9169 67.6029L93.2991 68.8312C94.6064 69.3141 96.834 70.5892 97.9369 69.2008C99.4578 67.2858 97.3717 66.194 95.9444 65.7351C94.3482 65.2222 92.9736 64.426 91.4416 64.081L90.431 63.9028C90.3703 65.3612 90.2791 64.5497 91.4403 65.2023C91.7757 65.391 91.665 65.3736 91.8596 65.5703Z" fill="#222121"/>
<path fill-rule="evenodd" clip-rule="evenodd" d="M79.3308 16.0511C78.9201 16.8588 78.4982 17.3428 77.7833 17.7484L76.8453 17.4426C76.6122 16.814 76.5057 17.0945 76.8067 16.4334C77.0164 15.9731 77.441 15.7986 77.6389 15.6775C78.9192 14.7489 79.8052 12.2572 81.0831 12.1717C82.3644 13.5195 79.6321 14.6132 79.3308 16.0511ZM75.1211 17.1619C75.4961 17.8592 76.7902 19.1295 78.1256 18.7945C79.0149 18.5714 80.1005 16.9453 80.6334 16.281C82.4194 14.0554 84.3906 12.1803 80.6454 10.2837C79.8865 10.6999 75.3274 16.6369 75.1211 17.1619Z" fill="#222121"/>
<path fill-rule="evenodd" clip-rule="evenodd" d="M86.0487 20.4838C85.8742 19.6866 86.0649 19.775 86.6746 19.244C87.2001 18.7864 87.4206 18.4789 88.1693 18.6147L88.2741 19.7825C87.4881 20.3539 87.1941 20.8985 86.0487 20.4838ZM83.09 22.4084C83.3657 21.9322 83.1434 22.2366 83.417 21.9069C84.1479 21.0249 84.307 20.9431 84.9557 20.947C84.9469 21.9002 84.8654 21.8002 84.1492 22.1915C83.9666 23.1428 82.8333 23.5206 82.907 24.7558C84.2561 25.1903 84.0287 24.5017 85.8995 22.0277C86.8517 21.9288 87.3907 21.9687 88.0485 21.4909C90.4335 19.7586 89.8862 18.1636 87.8698 16.6213L82.6072 21.0903C82.3925 21.277 81.7298 21.7958 81.6386 21.8978C81.1108 22.4885 80.9616 22.3976 81.6035 22.9927C82.2937 23.5986 82.2337 22.7384 83.09 22.4084Z" fill="#222121"/>
<path fill-rule="evenodd" clip-rule="evenodd" d="M92.6872 77.353L93.761 77.6067C94.0897 76.7462 94.0113 77.1045 93.4875 76.4792C93.2008 76.1369 93.4207 76.4628 93.118 75.9801C91.7335 75.7706 88.0529 72.0557 86.5444 72.0965L86.1712 72.6991C86.6571 74.1403 88.7204 73.9754 89.1601 75.331L88.7755 75.993C87.3963 75.9063 86.6177 74.7225 85.8957 74.4265C85.0912 74.0966 83.8143 74.709 86.1317 76.1493C87.6531 77.0947 91.3729 79.7807 92.2971 79.9587L92.7714 79.2585C92.1752 77.6568 89.2466 78.2923 90.0981 75.9883C91.1455 76.0134 91.9044 76.8039 92.6872 77.353Z" fill="#222121"/>
<path fill-rule="evenodd" clip-rule="evenodd" d="M57.7547 1.13018L56.6808 1.05715L55.7846 8.5581L54.6865 8.58014C54.1993 6.31924 55.5934 2.5468 55.0859 0.715783C53.6493 0.632356 53.793 0.728165 53.5533 4.91536C53.4355 6.9728 52.6923 9.12806 54.5398 9.78236C55.3675 10.0758 56.2093 9.76634 56.7218 9.24556C57.4957 8.4592 57.8732 1.8384 57.7547 1.13018Z" fill="#222121"/>
<path fill-rule="evenodd" clip-rule="evenodd" d="M5.05919 38.1062L4.87389 38.1674C3.93444 37.929 3.66014 37.9419 3.95979 36.7772C5.07086 36.5727 5.58134 36.7778 6.5673 37.1304L6.45313 38.5392C5.55253 38.5778 5.68494 38.6751 5.05919 38.1062ZM11.0661 40.8491C11.0389 39.9757 11.5496 40.0841 9.23444 39.4915C7.82044 39.1294 7.6096 39.4298 7.73599 37.8966C9.54923 37.6738 10.7763 38.9613 11.8923 38.2064C11.8452 37.1721 12.2742 37.7062 11.2204 37.2588C10.7938 37.0776 10.3046 36.9923 9.91745 36.8676C8.9915 36.569 8.1841 36.3898 7.34369 36.1348C5.98641 35.7231 3.64592 34.6037 2.86478 36.5615C1.96364 38.8203 4.46226 39.193 5.97073 39.7045C7.16733 40.1101 10.2149 41.2054 11.0661 40.8491Z" fill="#222121"/>
<path fill-rule="evenodd" clip-rule="evenodd" d="M24.9141 41.4476C25.8865 41.985 33.25 50.6791 34.0605 51.6696C35.2742 53.1531 36.7666 54.1283 36.9025 55.4246L36.8106 55.4597L38.9266 55.3832L33.0891 48.7005C32.7446 48.3278 32.6009 48.1793 32.2888 47.762C31.1415 46.2265 29.4468 44.6252 28.7909 43.827L28.2194 43.0663C26.9987 41.389 26.1141 41.2926 25.9463 40.0439C25.6957 40.2674 25.8196 40.1434 25.5801 40.4356L24.9141 41.4476Z" fill="#B16A6C"/>
<path fill-rule="evenodd" clip-rule="evenodd" d="M24.986 13.2442C25.3995 13.8697 27.0732 15.6346 26.3847 16.3199C25.5456 17.1551 21.9521 11.7968 22.5626 11.1857C23.4168 10.3305 24.6461 12.7294 24.986 13.2442ZM22.2025 9.91405C19.7252 11.0396 21.8628 13.2094 22.784 14.5956C23.7044 15.9811 24.7867 18.4466 26.7803 17.5906C29.2754 16.519 27.0116 14.0298 26.2694 12.8883C25.4155 11.5749 24.2943 8.96393 22.2025 9.91405Z" fill="#222121"/>
<path fill-rule="evenodd" clip-rule="evenodd" d="M64.0042 10.4009C63.8638 9.17459 64.5229 7.66962 64.8559 6.6419C65.1992 5.58285 65.1921 4.0941 66.7075 4.4136C66.9427 5.63549 66.2315 6.745 65.8745 7.82372C65.3914 9.28442 65.7315 10.5591 64.0042 10.4009ZM65.4848 3.28916C64.0744 3.79792 63.9134 5.82986 63.0414 8.07583C61.5986 11.7934 64.1851 12.0738 65.1583 11.7355C66.3912 11.3069 68.453 5.36572 67.9644 4.25549C67.5628 3.34308 66.6274 2.87695 65.4848 3.28916Z" fill="#222121"/>
<path fill-rule="evenodd" clip-rule="evenodd" d="M84.3621 87.1116C83.0887 87.2142 83.125 86.7302 81.6437 85.0289C80.568 83.7931 79.2222 82.8902 80.0134 82.13C80.6444 81.5242 82.053 83.4678 82.496 83.9796C83.2726 84.8771 84.5578 85.7249 84.3621 87.1116ZM78.7221 83.6317C78.9078 84.0687 81.9649 87.3537 82.1717 87.5756C83.9067 89.4357 86.5169 87.9583 85.607 85.7278C85.3956 85.2092 82.7969 82.4898 82.1115 81.7299C80.1655 79.5724 77.7856 81.4288 78.7221 83.6317Z" fill="#222121"/>
<path fill-rule="evenodd" clip-rule="evenodd" d="M50.557 47.2685C51.0208 46.478 51.574 46.3315 51.8587 45.2741C52.1198 43.8853 51.9159 44.5202 51.7487 44.2425L50.6644 46.0249C49.2129 46.9476 49.6332 45.8175 49.4852 48.2033L49.311 49.0531C48.8667 49.8748 49.3141 49.187 48.7844 49.5453C48.0604 53.1725 41.1797 53.6348 39.3867 51.5131C38.3364 51.0593 37.6474 50.3189 37.0472 49.0837C36.6207 48.4436 36.5914 48.0223 36.5624 47.3299C36.444 44.4992 37.4283 43.95 37.9709 42.885C37.9366 41.6904 38.0864 42.6523 37.7364 42.2412C37.161 42.5862 37.1852 42.7287 36.8082 43.554C32.1077 53.8498 46.1631 56.9187 49.3316 50.1983C50.0095 48.7604 49.4071 47.5554 50.557 47.2685Z" fill="#E9DBD3"/>
<path fill-rule="evenodd" clip-rule="evenodd" d="M92.8374 42.408L92.8112 41.5632C93.4012 41.2564 95.5633 40.8257 96.2682 40.6858C97.6815 40.4049 99.1799 39.7597 99.1475 41.3512C98.2469 41.8902 94.0293 42.8434 92.8374 42.408ZM97.0446 39.3965C95.8082 39.6586 92.5305 40.0517 91.8839 40.8422C91.5633 41.2337 90.395 44.5775 94.951 43.6922C96.5179 43.3877 99.3187 43.16 100.035 42.2133C100.598 41.4681 100.545 40.3313 99.9094 39.6783C99.1518 38.9006 98.1283 39.1669 97.0446 39.3965Z" fill="#222121"/>
<path fill-rule="evenodd" clip-rule="evenodd" d="M33.5776 13.5582L34.4098 13.2558C34.4546 11.5812 31.8187 7.57693 31.9454 5.89928C33.0689 5.49672 32.9816 5.60001 33.4043 6.41296C34.5356 8.58789 35.7156 14.0658 36.7875 12.096C37.0736 11.5701 36.494 10.8023 36.2821 10.3411C35.1942 7.97165 34.5798 4.60908 32.8506 4.33039C31.343 4.08739 30.4425 5.40436 30.7374 6.82408C30.8915 7.56672 33.2404 13.1217 33.5776 13.5582Z" fill="#222121"/>
<path fill-rule="evenodd" clip-rule="evenodd" d="M13.0929 72.3192C14.3798 71.6482 15.4488 72.4371 12.8659 73.888C11.8683 74.4483 8.34101 77.2181 8.60492 75.143C8.71015 74.3166 12.2777 72.7446 13.0929 72.3192ZM15.3143 73.5736C15.8925 72.5987 15.4402 71.252 14.4862 70.9491C13.2638 70.5609 12.4887 71.1653 11.7103 71.613C10.6921 72.1992 7.83928 73.4874 7.45117 74.3871C6.99449 75.4463 7.49695 76.5214 8.38004 76.8893C10.1021 77.607 14.8872 74.2936 15.3143 73.5736Z" fill="#222121"/>
<path fill-rule="evenodd" clip-rule="evenodd" d="M12.1218 36.7962L12.7278 35.7968C10.666 34.4596 4.48984 33.2416 6.02622 31.8448C6.80517 31.1368 11.4433 34.1185 12.8265 34.1739C13.161 34.1872 13.2122 34.1491 13.3433 34.1023C13.6755 33.2026 13.9864 33.5236 11.7864 32.5592C9.26585 31.4541 5.80335 29.2779 4.79734 31.2971C3.64998 33.6003 6.12033 34.268 7.50114 34.8792C8.55785 35.3471 11.1449 36.6076 12.1218 36.7962Z" fill="#222121"/>
<path fill-rule="evenodd" clip-rule="evenodd" d="M93.0741 70.0882C92.1451 69.6022 89.6893 67.9342 88.6109 68.175C88.3417 69.3115 88.9211 69.2679 89.9536 69.7661C90.6667 70.1104 91.187 70.4135 91.8 70.7414C94.1212 71.9817 94.969 71.9853 94.9193 73.3644C93.4077 73.5017 91.9255 72.352 90.7329 71.7933C87.5432 70.3 87.9802 69.7357 87.2246 70.9499C87.4429 71.8044 87.6353 71.5583 89.2505 72.4156C91.3814 73.5464 95.0956 76.1069 96.0309 73.6349C96.8514 71.4665 94.4088 70.7862 93.0741 70.0882Z" fill="#222121"/>
<path fill-rule="evenodd" clip-rule="evenodd" d="M97.0255 57.9618L97.0957 57.1426C97.136 57.0257 96.9161 56.4378 98.3829 56.6273C99.6589 56.7918 100.273 57.4503 99.6957 58.2681C99.0244 58.7796 97.4249 58.7687 97.0255 57.9618ZM93.9301 57.5344C92.8012 57.7036 92.7036 57.2716 91.7793 57.771C91.8776 59.2851 92.637 58.5694 95.8207 59.1397C97.2666 59.3988 99.3284 60.0283 100.367 59.1501C101.506 58.1873 101.037 56.3715 99.7085 55.8941C98.5863 55.4906 96.4041 55.4052 95.0933 55.122C93.9743 55.0442 93.0171 54.8207 92.391 55.1551L92.2659 55.8715L95.9846 56.4563L95.9049 57.9565C95.0067 57.9885 94.6691 58.1042 93.9301 57.5344Z" fill="#222121"/>
<path fill-rule="evenodd" clip-rule="evenodd" d="M15.1592 77.4605C15.6586 76.9282 15.3998 76.7227 15.7383 76.2923C16.364 75.4965 18.2223 76.1914 15.6276 77.9705C14.1279 78.9986 12.7545 80.3861 11.6221 80.2041C11.0571 78.0938 14.006 78.9634 12.7611 77.2907C11.8793 76.8634 9.12533 79.272 10.8446 80.975C12.3252 82.4415 14.4769 80.2972 15.4036 79.6793C16.0981 79.2163 16.8322 78.7062 17.4206 78.2068C20.1016 75.9307 15.9816 72.8525 13.8654 76.1976C14.0894 76.9774 14.427 77.3896 15.1592 77.4605Z" fill="#222121"/>
<path fill-rule="evenodd" clip-rule="evenodd" d="M40.1248 44.5115C40.2448 43.3656 39.7659 40.4305 41.895 39.4646L44.8106 42.4544C45.3169 43.0034 45.2401 43.1791 45.669 43.7738C46.2196 44.5374 46.9012 45.187 47.4808 45.9065C48.222 46.8258 48.2056 48.0207 48.5866 49.0111C48.7394 48.2131 48.8244 46.6316 48.5937 45.8751C48.5043 45.5822 47.7739 44.466 47.5173 43.9197C46.868 42.537 47.251 43.5434 46.2091 42.1604C45.7093 41.4978 45.1806 40.9912 44.9238 40.1023L44.8489 40.117C44.251 40.0784 44.4504 40.5056 43.9506 38.4698C43.715 37.5091 43.7538 37.0532 44.1031 36.345L43.3087 36.7127C40.7068 38.4361 39.1786 41.377 39.9893 44.1947L40.1248 44.5115Z" fill="#F7921B"/>
<path fill-rule="evenodd" clip-rule="evenodd" d="M19.8323 79.6565C20.1731 80.8254 19.532 80.9819 18.0896 82.379C17.5541 82.8976 15.8304 84.8518 15.1013 84.1395C14.371 83.4258 15.8027 82.5276 16.9681 81.4735C17.6606 80.8471 18.6178 79.5348 19.8323 79.6565ZM16.5775 80.1554C15.6969 81.1305 12.8286 82.7204 13.8496 84.7423C14.2966 85.6272 15.6285 86.0214 16.6537 85.3168C16.9745 85.0962 18.3677 83.7854 18.6263 83.5025C18.887 82.9925 18.6085 83.3503 19.0298 82.8692C19.1631 82.7167 19.3278 82.6047 19.4965 82.4663C22.8893 79.6795 20.1813 78.066 18.5693 78.7064C18.0951 78.8948 17.9515 79.1255 17.6105 79.4895C16.988 80.1534 17.3703 79.8882 16.5775 80.1554Z" fill="#222121"/>
<path fill-rule="evenodd" clip-rule="evenodd" d="M15.8434 22.9313C16.783 23.0128 17.8297 23.7287 17.5078 24.9329C16.249 25.1092 16.7631 24.4571 15.6347 25.0258C15.6158 27.5479 20.3577 25.9103 18.6515 23.3108C18.4689 23.0326 17.079 21.8315 16.5795 21.6652C14.9459 21.1218 15.0518 22.1586 14.092 22.6155C13.0577 22.4461 12.3191 21.761 12.3957 20.6856C13.5315 20.4306 13.6181 20.9907 14.1755 20.4735C15.5122 19.2334 10.7808 18.2549 11.0544 21.2814C11.1358 22.1845 12.1668 23.0977 12.8822 23.6157C14.6371 24.8862 14.8966 23.3769 15.8434 22.9313Z" fill="#222121"/>
<path fill-rule="evenodd" clip-rule="evenodd" d="M39.0142 7.60218C40.1059 9.25451 39.7853 10.6125 38.5234 9.84251C37.9243 9.47711 38.6908 9.38677 37.1657 9.39587C37.2321 12.8949 42.6104 12.0009 40.2303 7.05317C39.6281 5.80159 38.7047 6.36791 37.4535 6.32274C37.1998 5.61798 36.925 4.83162 37.1641 3.91392C38.4435 3.74452 37.846 4.26875 38.558 4.59736C40.6301 5.55367 38.6193 0.957717 36.3266 3.06889C35.4512 3.87493 35.7003 5.40486 36.1265 6.56956C36.703 8.14593 37.588 7.59271 39.0142 7.60218Z" fill="#222121"/>
<path fill-rule="evenodd" clip-rule="evenodd" d="M9.76448 68.545C10.4668 68.1018 12.4854 67.0978 12.0948 68.6603C11.8976 69.4494 11.0922 69.1806 11.6313 69.8704C11.637 69.8773 11.9945 70.8549 13.0464 69.7024C13.7741 68.9055 13.7451 66.6162 11.6831 66.536C10.9956 66.5094 9.41705 67.0947 8.89343 67.52C8.07801 68.1827 8.60436 69.3358 8.60655 70.2941C7.96748 70.8411 7.34173 71.238 6.30143 71.0901C5.8805 68.8702 7.39079 70.5019 6.75939 68.9822C6.35705 68.7277 6.88633 68.7073 6.03005 68.7889C5.84712 68.8062 5.56115 68.9966 5.46211 69.0979C3.67697 70.9263 6.33845 73.9811 9.43273 71.3185C10.3362 70.5412 9.68095 69.6343 9.76448 68.545Z" fill="#222121"/>
<path fill-rule="evenodd" clip-rule="evenodd" d="M8.6534 47.8954C8.45661 49.7745 4.30635 48.0107 0.806641 48.4164L0.80974 49.6045C2.32806 49.7847 4.18707 49.7698 5.60126 49.9259C7.09149 50.09 9.50257 50.3051 9.52664 48.918C9.86204 46.4635 8.52847 46.5401 6.4382 46.3487C5.52502 46.2653 4.60418 46.2325 3.68862 46.1564C2.14678 46.0283 1.8278 45.6445 1.02459 46.2423C1.94233 47.8941 8.15587 46.1835 8.6534 47.8954Z" fill="#222121"/>
<path fill-rule="evenodd" clip-rule="evenodd" d="M6.41272 59.0893L6.46525 57.2242C7.29509 56.814 9.21154 56.2985 9.14972 57.6408C9.07749 59.2086 7.99469 57.4107 8.15482 59.4246C10.2272 59.143 10.4774 58.1614 9.76999 56.2941C8.84021 55.5697 8.18055 55.5894 6.88546 55.8355C4.02536 56.3783 5.94327 58.2749 4.61134 58.8659C4.31114 58.9993 1.60462 59.3181 3.02372 57.7557C3.46764 57.2668 3.69525 58.0437 3.52965 56.5668C1.11693 56.2577 0.771861 58.9109 1.99491 59.8496C3.025 60.6403 5.8581 60.184 6.41272 59.0893Z" fill="#222121"/>
<path fill-rule="evenodd" clip-rule="evenodd" d="M23.9023 43.6787C24.8637 43.4381 24.4223 43.3159 25.1161 42.9324C25.3463 43.3002 25.4829 43.3751 25.6804 43.6328L25.8719 43.8993C25.8998 43.9407 25.9301 43.9993 25.9572 44.0403C26.6899 45.1498 26.5015 44.5139 27.1598 44.948C27.8554 45.4065 27.4004 45.2079 27.827 45.8757C28.2228 46.4947 28.7449 46.4832 29.2724 47.2604C29.9723 48.2918 31.034 49.8019 31.9884 50.6815C32.0229 50.7132 32.0734 50.754 32.1077 50.786L35.9845 55.4244H36.9028C36.7669 54.1282 35.2745 53.153 34.0608 51.6695C33.2503 50.6789 25.8868 41.9849 24.9144 41.4475L23.9023 43.6787Z" fill="#2D2E53"/>
<path fill-rule="evenodd" clip-rule="evenodd" d="M47.1088 34.0021C46.9126 34.2025 46.7722 34.38 46.614 34.5518C46.414 34.7693 46.2584 34.923 46.0957 35.0968L46.3361 35.9092L46.3983 35.9391C46.7953 36.8094 46.6518 37.874 47.6467 38.1534C48.5444 39.2722 50.0324 39.4195 51.2246 40.8478C52.0021 41.7792 53.0636 44.0262 51.8588 45.2742C51.5741 46.3316 51.0209 46.478 50.5571 47.2686C54.0524 46.3926 52.5726 42.7114 52.7349 41.1165C54.8294 41.0974 53.8644 41.4533 54.6672 42.4486C54.7048 42.487 56.5007 43.6565 57.3174 43.6226C56.4672 42.5519 50.3939 38.1774 49.8932 37.9876C49.6957 38.6361 49.9184 38.3547 49.5582 38.657C49.5139 38.6212 49.4537 38.5736 49.424 38.551L48.2312 37.7441C47.5256 37.2741 47.7408 37.4719 47.3669 36.6231C46.1632 33.8904 47.405 35.3471 47.6879 33.9451L47.1088 34.0021Z" fill="#2D2E53"/>
<path fill-rule="evenodd" clip-rule="evenodd" d="M37.0474 49.0838C37.6476 50.319 38.3366 51.0594 39.387 51.5132L38.2881 50.1011C38.3014 49.4707 38.1763 49.5158 37.9658 49.1014C37.2638 47.718 37.2916 46.2565 37.6921 44.8825C38.5221 44.9314 38.2642 44.8545 38.9968 45.4237C39.6408 45.9247 39.1457 45.782 40.0342 46.1239L40.126 44.5117L39.9905 44.1949C39.1798 41.3772 40.7079 38.4363 43.3098 36.7129L44.1042 36.3451C43.755 37.0534 43.7161 37.5093 43.9518 38.47C44.4515 40.5057 44.2522 40.0786 44.85 40.1172C44.4205 38.421 45.2127 39.48 44.7466 37.6051L44.6165 35.2056L43.8724 35.3781C42.1703 36.0923 39.5582 38.8341 39.3317 40.777C39.2117 41.8074 39.2657 43.7709 39.3609 44.8157C38.5314 44.5845 38.7276 44.2678 37.9554 43.9936C36.5407 44.8787 36.983 47.6222 37.0474 49.0838Z" fill="#D2944E"/>
<path fill-rule="evenodd" clip-rule="evenodd" d="M72.2969 15.4127C72.7187 15.8305 73.9828 17.0195 74.5155 16.5342C75.1234 15.5072 74.5595 15.6797 73.9288 14.9751L74.9352 13.0641C76.0605 12.9534 76.3888 13.7871 76.8307 12.9221C77.1699 12.2576 76.8834 12.453 76.3415 11.8477C76.1044 11.583 76.2179 11.7672 76.0295 11.4769L77.1296 9.71486L78.4559 9.87699C78.5 9.87626 78.5824 9.86058 78.6176 9.8584C78.6534 9.85621 78.7282 9.84966 78.7796 9.83108C78.8055 9.77406 78.8312 9.61759 78.8321 9.65056C78.8325 9.6746 79.1454 8.36365 76.9239 7.96582C76.38 8.43414 72.3846 14.237 72.2969 15.4127Z" fill="#222121"/>
<path fill-rule="evenodd" clip-rule="evenodd" d="M80.6446 21.7399L81.1686 21.2339L80.4376 20.0364L81.8434 18.4025C83.3427 18.6169 82.852 19.4481 83.4959 18.8519C84.7817 17.6613 81.3469 17.4456 84.8042 15.4499C85.2402 15.6303 86.5129 16.8738 86.5178 15.459C86.5196 14.9064 85.3759 13.9954 84.8042 13.7654C84.0073 14.1829 83.3161 15.1033 82.692 15.7015L78.8341 19.7441C78.4775 20.6279 80.0192 21.6405 80.6446 21.7399Z" fill="#222121"/>
<path fill-rule="evenodd" clip-rule="evenodd" d="M17.3028 88.2834C17.9509 88.2441 19.6996 86.032 20.1433 85.5203C21.756 83.6613 21.9571 82.8775 23.292 82.9813C23.3974 83.9901 23.3139 83.9077 22.8203 84.4806C22.6328 84.6984 22.4917 84.7068 22.3647 85.0863C22.3536 85.1196 22.3425 85.1934 22.3359 85.224L22.3934 85.6449C23.3193 86.716 24.813 84.4821 24.6458 83.2099C24.4426 81.6645 22.6046 81.0513 21.2914 82.3002C20.4386 83.1111 19.408 84.4314 18.718 85.1872C17.8475 86.1415 16.3677 87.2439 17.3028 88.2834Z" fill="#222121"/>
<path fill-rule="evenodd" clip-rule="evenodd" d="M53.166 75.9895L53.1804 76.1575C53.9926 76.4839 53.6497 76.1276 54.4653 76.5134C54.4912 76.5258 55.4478 77.1805 55.5143 77.2333C56.2165 77.7934 55.8691 77.5639 56.3383 78.1881C56.5563 78.4781 56.5246 78.383 56.7407 78.6896C57.4035 79.6293 56.7184 79.0867 57.8993 80.0829C57.9495 80.125 58.323 80.4838 58.3693 80.5296L59.2442 81.4159C59.7713 82.2628 59.0091 81.8751 59.7936 83.0258L61.3248 83.0329C61.6075 83.9012 61.4988 83.6637 61.3794 83.7071C62.2582 83.7748 65.07 82.9675 65.965 82.5533L66.3899 82.3531C66.9175 82.162 67.6795 82.1948 68.3073 81.7316L70.4676 80.4223C69.5013 80.6184 69.1008 80.9106 68.1792 81.1037L63.8772 82.0185C62.648 82.4569 62.6668 82.7165 61.0852 82.5813C60.1716 81.4884 58.9568 80.205 57.9878 79.1545C56.5061 77.549 56.1609 76.315 54.798 76.2168C53.872 75.4396 54.7069 75.3773 54.1549 74.4026C54.0258 74.5507 54.0143 74.5113 53.8782 74.7917C53.7642 75.0261 53.7553 75.1937 53.6998 75.3207C53.4002 76.0097 53.8689 75.7673 53.166 75.9895Z" fill="#4B7253"/>
<path fill-rule="evenodd" clip-rule="evenodd" d="M24.9297 69.7842C25.3063 72.103 26.6623 73.9486 27.0174 75.8523L26.5281 75.8547C26.7506 76.4736 26.4666 76.0208 26.8677 76.6337C28.3371 76.6337 27.2204 76.7281 27.6639 76.1977C27.564 75.3131 27.127 75.3916 27.696 75.2302C26.1079 71.754 26.344 71.7043 27.446 66.5132C27.4867 66.497 31.5025 65.5458 31.6927 66.8609C31.8525 67.9652 30.8844 70.1044 31.17 71.5877C32.3128 71.3201 32.1737 70.284 32.4131 68.9171C32.6234 67.716 32.8549 66.6617 33.0929 65.497C33.2275 65.1241 33.2995 64.6414 33.3167 64.1701C33.3314 63.7628 33.346 63.712 33.2506 63.3273C33.108 62.7515 33.1817 63.0419 32.9953 62.8335C32.5505 63.9148 33.2785 65.8523 32.071 66.0068L29.8573 65.9449C24.5502 65.8931 27.6178 68.0052 26.1325 70.5592C24.7194 70.2891 26.2437 70.4481 24.9297 69.7842Z" fill="#6A9276"/>
<path fill-rule="evenodd" clip-rule="evenodd" d="M9.39613 61.8329L7.53221 62.2549L6.96117 60.8665C5.37209 61.0352 5.88056 61.544 6.00367 62.6376L3.5718 63.2074C3.08648 62.0238 3.6557 61.7846 2.07227 62.0143L2.63253 64.6218C4.06441 64.5472 9.34215 62.9387 11.2641 62.6331L11.2482 61.4363C11.1634 61.3208 11.0937 61.2287 10.9652 60.9795C10.9336 60.9183 10.8709 60.7042 10.8353 60.6456C10.532 60.1445 10.8079 60.308 10.1512 60.1794C9.92157 60.5315 9.76199 60.631 9.99653 61.6372L9.39613 61.8329Z" fill="#222121"/>
<path fill-rule="evenodd" clip-rule="evenodd" d="M48.625 0.981676C48.7709 2.38372 48.8276 1.53999 49.7692 2.0748L49.822 9.08558C50.0138 10.059 50.7632 9.96594 51.0392 9.26373C51.1785 8.90926 51.1283 5.15649 51.1265 4.47814C51.1136 0.0220873 52.2265 3.20214 52.4402 0.981676C51.8168 0.532846 50.3622 0.545793 49.5506 0.653993C48.8068 0.753085 49.877 0.524833 49.1497 0.732671C48.716 0.856901 48.886 0.788227 48.625 0.981676Z" fill="#222121"/>
<path fill-rule="evenodd" clip-rule="evenodd" d="M40.6738 1.67412L40.6899 2.73243C41.9737 3.30167 42.1289 1.24751 43.0096 8.83918C43.1644 10.1749 43.018 10.3968 44.2844 10.3163C44.7478 8.64919 43.4757 4.71173 43.3993 2.73097C44.1164 2.20528 44.51 2.8033 44.465 1.20361L40.6738 1.67412Z" fill="#222121"/>
<path fill-rule="evenodd" clip-rule="evenodd" d="M69.1688 13.9798C70.4786 14.262 70.2415 13.8552 70.7119 12.9087C71.0225 12.2843 71.4097 11.6451 71.7011 11.0868C72.6114 11.0763 72.8547 11.4856 73.5018 11.0396C73.5009 9.76674 73.504 10.5535 72.6065 9.72777C72.7347 8.93431 73.2888 8.2361 73.6336 7.55266C74.3309 7.63645 75.8034 8.19985 75.3449 7.0071C75.1407 6.47575 73.8447 5.99943 73.0818 5.91309C72.1478 7.9953 68.9738 13 69.1688 13.9798Z" fill="#222121"/>
<path fill-rule="evenodd" clip-rule="evenodd" d="M93.4545 25.9772L86.6367 29.5806C86.7259 30.4094 87.1375 30.8508 87.4977 31.5058C88.0142 32.4443 88.0028 33.0392 88.9641 32.6776C89.5639 31.7139 88.5696 31.3556 88.4667 29.9916L94.1355 27.0929L94.4122 26.7758C94.6283 26.4611 94.7766 26.6408 94.6398 25.6392L93.4545 25.9772Z" fill="#222121"/>
<path fill-rule="evenodd" clip-rule="evenodd" d="M6.53126 28.4414C8.38042 29.1416 6.534 27.1433 8.57429 28.113C9.30163 28.4585 13.5382 31.2163 14.1541 31.2775C15.3326 31.3945 12.9775 31.5309 14.6414 31.2129C15.3527 31.0768 15.3109 30.4739 13.9489 29.7618C13.3977 29.4736 12.8787 29.1771 12.2383 28.8315C11.1333 28.2354 9.87886 27.6424 8.7926 26.7823C8.7315 25.6429 8.95072 26.3073 8.91406 25.3945L7.98319 25.009C7.60548 25.45 7.36309 25.9632 7.03608 26.5118C6.5887 27.2617 6.21592 27.7075 6.53126 28.4414Z" fill="#222121"/>
<path fill-rule="evenodd" clip-rule="evenodd" d="M0.806641 55.0454L1.93083 55.0733C2.22556 54.0262 1.68954 53.7703 2.73623 53.5993L7.97256 53.5144C9.40936 53.5007 9.68385 53.7935 9.76391 52.5832C9.71303 52.5461 9.63005 52.4417 9.5974 52.4934C9.56512 52.5455 9.47229 52.426 9.42597 52.4125C9.37891 52.3985 9.30413 52.3619 9.24467 52.3477C9.18321 52.3333 9.12175 52.3154 9.05099 52.3036L2.27006 52.496L1.76924 51.1626L0.864454 51.1673L0.806641 55.0454Z" fill="#222121"/>
<path fill-rule="evenodd" clip-rule="evenodd" d="M35.8652 73.1261C36.5528 72.7284 36.0049 72.9956 36.2488 73.1366C36.0292 76.4864 34.7564 76.7746 41.2384 76.0341C40.9296 73.5909 43.1931 64.8577 43.1373 63.9032C43.0932 63.1543 43.3354 63.6873 42.8304 63.1409L41.0157 72.8936C40.5037 75.8573 41.0569 76.593 36.2375 75.9221C36.2167 73.9441 36.9497 71.2595 37.2429 69.6161C37.5191 68.068 38.3236 65.0673 38.3082 63.6334C37.5581 64.0189 37.8521 63.4365 37.5938 64.6384L36.9292 68.341C36.6345 70.1187 36.1824 71.5779 35.8652 73.1261Z" fill="#A8A7A8"/>
<path fill-rule="evenodd" clip-rule="evenodd" d="M59.7592 5.86967C59.8312 6.69884 59.5184 7.71526 59.3415 8.63496C59.0886 9.94921 58.4061 10.6449 60.0658 10.5724L61.6503 3.3654C62.4183 2.59033 62.3707 3.41968 63.082 2.73095C62.8496 1.65678 60.072 1.51708 59.5582 1.73639C59.5327 2.88397 59.7375 2.16135 60.5361 2.94954L60.1838 5.15635C59.9049 5.93725 60.0466 5.53797 59.7592 5.86967Z" fill="#222121"/>
<path fill-rule="evenodd" clip-rule="evenodd" d="M47.0248 40.5242C46.6874 39.7673 46.9175 40.4196 46.6421 39.9786C46.4448 39.6624 46.542 39.9575 46.4101 39.5589C46.2053 38.9402 46.2936 38.7802 46.4931 38.4303L47.0501 38.9079C47.089 38.9365 47.1397 38.9773 47.1807 39.0046C48.6872 40.0145 51.1438 41.1113 51.2786 43.2059C51.3202 43.8529 51.2861 43.9624 51.049 44.4533C50.6023 45.3773 51.1159 44.9868 50.2148 45.1693C50.1825 45.1216 50.1537 45.05 50.1394 45.0134L50.0089 44.6913C49.639 43.4862 50.0844 43.0634 49.1648 42.2798C48.5504 41.7564 48.9739 42.0106 48.2458 41.6763C48.5509 43.2188 50.4898 43.739 49.8478 45.805C50.3434 46.2652 49.8207 46.1848 50.6643 46.0249L51.7486 44.2425C51.9158 44.5201 52.1198 43.8853 51.8586 45.274C53.0634 44.0261 52.0019 41.779 51.2244 40.8477C50.0322 39.4194 48.5442 39.272 47.6465 38.1532C47.5779 38.1283 47.3067 37.9882 47.2531 37.9691C46.7528 37.7902 47.623 37.9669 46.7616 37.8183C44.722 37.4674 46.0658 39.8679 47.0248 40.5242Z" fill="#D3AC73"/>
<path fill-rule="evenodd" clip-rule="evenodd" d="M71.6686 63.4106C71.4233 63.1392 71.0037 64.0414 71.4279 61.5503C71.7255 59.8025 71.7368 60.3515 72.1063 60.1032C72.3861 60.4672 72.4954 59.5739 72.4211 61.1062L72.0753 62.8064C71.8176 63.5636 71.9313 63.1296 71.6686 63.4106ZM70.555 61.5175C70.3974 62.623 70.0236 63.3398 70.2047 64.3604C70.6313 64.3966 72.1525 64.4817 72.4808 64.3125C73.3425 63.8689 72.4545 63.4084 73.2329 62.2935C73.2793 61.1956 73.8488 59.9768 73.0872 59.2353C71.6353 57.9194 70.3553 60.2491 70.555 61.5175Z" fill="#E9DBD3"/>
<path fill-rule="evenodd" clip-rule="evenodd" d="M27.9867 6.1355C27.9548 7.65321 30.045 11.1515 30.8619 12.8603C31.1143 13.3882 31.5953 15.0456 32.4849 14.131C33.0439 13.5563 30.331 9.04087 29.752 7.88255C29.1999 6.77887 29.3214 6.15462 27.9867 6.1355Z" fill="#222121"/>
<path fill-rule="evenodd" clip-rule="evenodd" d="M47.5653 9.88662C47.7143 9.15599 47.3311 1.78127 47.1495 1.07324L45.9808 0.827148C45.7028 2.42264 46.3262 6.05992 46.4602 8.20497C46.5474 9.60356 46.2244 9.93197 47.5653 9.88662Z" fill="#222121"/>
<path fill-rule="evenodd" clip-rule="evenodd" d="M47.0243 40.5243C47.2266 41.0105 47.8668 41.3445 48.2454 41.6764C48.9734 42.0107 48.5499 41.7566 49.1644 42.2799C50.084 43.0635 49.6386 43.4863 50.0085 44.6915L50.139 45.0135C50.1532 45.0501 50.1821 45.1217 50.2144 45.1694C51.1155 44.9869 50.6019 45.3774 51.0486 44.4534C51.2857 43.9625 51.3198 43.853 51.2782 43.206C51.1434 41.1114 48.6867 40.0146 47.1803 39.0048C47.1392 38.9774 47.0885 38.9366 47.0497 38.908L46.4927 38.4304C46.2932 38.7803 46.2049 38.9403 46.4097 39.5591C46.5416 39.9576 46.4444 39.6625 46.6417 39.9787C46.9171 40.4197 46.6869 39.7674 47.0243 40.5243Z" fill="#F7921B"/>
<path fill-rule="evenodd" clip-rule="evenodd" d="M9.16773 23.2034C8.4207 24.0147 10.9583 25.0932 12.5079 26.1916C13.2945 26.7492 13.7511 27.0676 14.5379 27.4778C15.3853 27.9198 15.8983 28.969 16.5328 28.3223C17.3129 27.5272 15.0243 26.4248 13.3922 25.2878L9.88758 23.0568C8.88084 22.9285 10.817 22.8221 9.35029 23.1305C9.30415 23.1402 9.21205 23.1551 9.16773 23.2034Z" fill="#222121"/>
<path fill-rule="evenodd" clip-rule="evenodd" d="M54.7509 69.2924C54.6453 70.8837 54.1754 71.7045 54.2946 73.4665C54.657 73.1648 54.5604 73.5382 54.8945 72.5484C55.0418 72.1114 55.0433 71.9557 55.2587 71.5382C55.2239 69.8685 57.0298 63.2527 56.9266 61.6036C55.5884 61.5942 56.0526 62.1818 55.4537 64.9735C55.1551 66.3659 54.8378 68.0096 54.7509 69.2924Z" fill="#4B7253"/>
<path fill-rule="evenodd" clip-rule="evenodd" d="M23.2815 41.5183L23.363 41.4422C24.874 38.5416 20.8529 38.5805 20.5733 35.4216C21.5944 35.4797 21.4826 35.5223 22.0298 36.1245C22.6745 36.834 24.1335 38.3188 24.4153 39.054L25.0517 38.933L25.2399 38.5909H24.8189C24.6988 37.5035 24.5432 37.7763 24.0073 37.2308C22.5434 35.7396 22.918 34.0044 20.0411 35.1138C19.9871 36.3468 19.9043 36.3428 20.4031 37.2818L23.1691 40.34L23.2815 41.5183Z" fill="#2D2E53"/>
<path fill-rule="evenodd" clip-rule="evenodd" d="M38.288 50.1011C38.2075 48.4508 37.6613 49.0576 38.0226 47.1872C38.5167 47.3087 38.1581 47.1832 38.5761 47.3848C40.0607 48.1014 38.9168 48.3674 40.5825 48.3801C40.8229 48.0929 41.0421 47.7861 41.2637 47.5544L40.3859 44.9338C40.1054 44.4001 40.3228 44.7389 40.1258 44.5117L40.0341 46.124C39.1455 45.7821 39.6407 45.9247 38.9967 45.4238C38.2641 44.8545 38.5219 44.9314 37.6919 44.8826C37.2914 46.2566 37.2637 47.718 37.9657 49.1015C38.1761 49.5159 38.3013 49.4707 38.288 50.1011Z" fill="#F7921B"/>
<path fill-rule="evenodd" clip-rule="evenodd" d="M18.279 14.5642C17.7716 15.0981 18.4247 15.487 18.8276 15.9197C19.3561 16.4867 19.6009 16.7971 20.0721 17.313C21.2519 18.6046 22.0034 19.9932 22.6397 19.3673C23.4934 18.5272 21.5184 16.8676 21.0471 16.3452C20.4292 15.6601 19.183 13.6127 18.279 14.5642Z" fill="#FDFDFE"/>
<path fill-rule="evenodd" clip-rule="evenodd" d="M19.8321 79.6566C18.6176 79.5349 17.6605 80.8472 16.968 81.4736C15.8025 82.5277 14.3709 83.4259 15.1011 84.1396C15.8303 84.8518 17.5539 82.8977 18.0894 82.3791C19.5319 80.982 20.1729 80.8255 19.8321 79.6566Z" fill="#FDFDFE"/>
<path fill-rule="evenodd" clip-rule="evenodd" d="M92.8368 42.4081C94.0287 42.8435 98.2462 41.8903 99.1468 41.3513C99.1793 39.7598 97.6808 40.405 96.2676 40.6859C95.5627 40.8258 93.4005 41.2565 92.8105 41.5633L92.8368 42.4081Z" fill="#FDFDFE"/>
<path fill-rule="evenodd" clip-rule="evenodd" d="M91.5 36.9915C91.5753 38.8958 93.3752 37.8196 96.7108 36.7086C97.5977 36.4132 97.8738 36.2319 97.6444 35.1916C96.6645 35.1539 92.4425 36.6137 91.5 36.9915Z" fill="#FDFDFE"/>
<path fill-rule="evenodd" clip-rule="evenodd" d="M13.0939 72.3195C12.2786 72.7448 8.71109 74.3168 8.60585 75.1432C8.34195 77.2183 11.8692 74.4485 12.8668 73.8882C15.4497 72.4373 14.3808 71.6484 13.0939 72.3195Z" fill="#FDFDFE"/>
<path fill-rule="evenodd" clip-rule="evenodd" d="M64.0037 10.4009C65.731 10.5592 65.3909 9.28447 65.874 7.82377C66.231 6.74505 66.9422 5.63555 66.707 4.41365C65.1916 4.09415 65.1987 5.58291 64.8554 6.64196C64.5224 7.66967 63.8633 9.17464 64.0037 10.4009Z" fill="#FDFDFE"/>
<path fill-rule="evenodd" clip-rule="evenodd" d="M2.93144 42.0882C2.60881 43.6447 2.83971 42.9598 6.116 43.6907C9.07513 44.3512 9.238 44.4893 9.15574 43.1813C8.52434 42.6414 3.80796 41.6462 2.93144 42.0882Z" fill="#FDFDFE"/>
<path fill-rule="evenodd" clip-rule="evenodd" d="M80.0134 82.13C79.2222 82.8901 80.568 83.7931 81.6437 85.0288C83.125 86.7301 83.0887 87.2141 84.3621 87.1115C84.5578 85.7248 83.2725 84.877 82.496 83.9796C82.053 83.4677 80.6444 81.5241 80.0134 82.13Z" fill="#FDFDFE"/>
<path fill-rule="evenodd" clip-rule="evenodd" d="M22.5636 11.1857C21.9531 11.7968 25.5466 17.1551 26.3857 16.3199C27.0742 15.6347 25.4005 13.8698 24.987 13.2442C24.6471 12.7295 23.4178 10.3305 22.5636 11.1857Z" fill="#FDFDFE"/>
<path fill-rule="evenodd" clip-rule="evenodd" d="M48.5866 49.0111C48.5614 49.5111 48.4764 49.3248 48.7836 49.5452C49.3132 49.1869 48.8658 49.8747 49.3101 49.053C48.9216 46.2325 49.7887 45.6192 48.4033 43.2274C47.798 42.1827 47.7289 42.3184 46.7755 41.5838C46.1374 41.0919 45.6911 40.4027 44.9238 40.1023C45.1806 40.9912 45.7093 41.4978 46.2091 42.1605C47.251 43.5434 46.868 42.537 47.5173 43.9197C47.7739 44.466 48.5043 45.5822 48.5937 45.8751C48.8244 46.6316 48.7394 48.2131 48.5866 49.0111Z" fill="#D2944E"/>
<path fill-rule="evenodd" clip-rule="evenodd" d="M18.055 41.6318C17.852 43.0087 18.0492 42.7069 19.3246 44.5122C19.6583 44.9849 19.8207 45.1172 20.2252 45.5853L21.3446 46.7803C21.5002 45.4797 21.7915 46.0074 22.0612 44.9571L21.3408 44.9234C21.0153 43.9058 18.5812 41.4446 18.1681 40.8225L18.055 41.6318Z" fill="#D5F24E"/>
<path fill-rule="evenodd" clip-rule="evenodd" d="M77.6378 15.6774C77.267 16.6858 77.0142 16.3646 77.2114 17.2663C78.6223 17.4233 77.8342 16.8965 79.3297 16.051C79.631 14.613 82.3633 13.5194 81.082 12.1716C79.8041 12.2571 78.9181 14.7488 77.6378 15.6774Z" fill="#FDFDFE"/>
<path fill-rule="evenodd" clip-rule="evenodd" d="M23.362 41.4422C23.8683 41.0156 24.7455 39.572 25.0506 38.933L24.4143 39.054C24.1325 38.3188 22.6735 36.8341 22.0288 36.1246C21.4816 35.5224 21.5934 35.4797 20.5723 35.4216C20.8519 38.5806 24.873 38.5416 23.362 41.4422Z" fill="#B16A6C"/>
<path fill-rule="evenodd" clip-rule="evenodd" d="M8.65368 47.8954C8.15614 46.1835 1.94261 47.8941 1.02487 46.2423C1.82807 45.6445 2.14705 46.0283 3.6889 46.1563C4.60445 46.2325 5.5253 46.2653 6.43848 46.3487C8.52875 46.5401 9.86232 46.4635 9.52692 48.918C9.5499 48.9053 10.2636 48.9031 9.93235 47.5751C9.84262 47.2158 9.51816 46.8207 9.31645 46.6429C8.26356 45.715 1.52514 45.5778 0.822973 45.8447C0.669408 47.3622 0.664661 46.9403 4.05859 47.2522C5.57691 47.3919 7.49665 47.3567 8.65368 47.8954Z" fill="#6A9276"/>
<path fill-rule="evenodd" clip-rule="evenodd" d="M53.166 75.9896C53.8689 75.7674 53.4002 76.0098 53.6998 75.3207C53.7553 75.1938 53.7642 75.0262 53.8782 74.7917C54.0143 74.5114 54.0258 74.5507 54.1549 74.4027C54.7069 75.3774 53.872 75.4397 54.798 76.2169C55.4024 76.4226 55.8393 76.3827 56.5601 76.3714C56.8093 76.3672 57.4636 76.3728 57.6694 76.3492L58.7171 76.0042L57.0062 76.1823C57.3546 75.1622 57.2236 75.6524 57.8528 75.2172C58.4441 74.8085 58.2486 74.8834 58.3542 74.144L57.8767 75.0032C56.866 75.1713 56.4257 75.2644 55.6168 74.8843L55.7048 73.5875C55.1717 75.1406 55.1919 74.4642 55.9904 75.7415C56.0369 75.8156 56.087 75.8954 56.1242 75.9777H55.0307C54.7292 75.6147 54.1868 76.7162 54.8404 73.5972C54.9588 73.0319 55.1833 72.2711 55.2585 71.5383C55.0431 71.9558 55.0416 72.1115 54.8943 72.5485C54.5601 73.5383 54.6568 73.1649 54.2944 73.4666C54.1751 71.7046 54.6451 70.8838 54.7507 69.2925C54.1275 70.0251 54.2233 71.4306 54.087 72.4806C53.9085 73.8573 53.4372 74.7109 53.166 75.9896Z" fill="#A8A7A8"/>
<path fill-rule="evenodd" clip-rule="evenodd" d="M46.2129 71.7176C46.3582 71.5161 46.3409 71.6793 46.5811 71.0727C46.8191 70.4709 46.7325 68.0522 48.1963 68.7676L49.3998 70.3164C49.8167 71.0585 49.1328 70.9463 49.9026 70.9782L50.0622 67.8306C49.7967 67.904 49.754 67.9716 49.348 68.053L46.9291 68.1063L46.2129 71.7176Z" fill="#6A9276"/>
<path fill-rule="evenodd" clip-rule="evenodd" d="M48.0679 62.493C47.5815 62.8298 47.6807 62.7074 47.8049 63.517C49.5667 63.7682 48.5465 63.3398 51.0898 63.9637L51.5087 62.7513L51.3063 62.1975L48.0679 62.493Z" fill="#6A9276"/>
<path fill-rule="evenodd" clip-rule="evenodd" d="M48.0679 62.493L51.3063 62.1975L51.5087 62.7513L51.6238 60.9618L48.0449 61.2226L48.1555 60.5884C48.1292 60.8658 48.1848 61.18 48.1824 61.3436C48.1775 61.686 48.1077 61.9055 48.0679 62.493Z" fill="#D5F24E"/>
<path fill-rule="evenodd" clip-rule="evenodd" d="M51.5621 60.7069L48.4427 60.9219C48.7221 59.5377 49.9213 60.1235 51.5406 60.0233L51.5621 60.7069ZM48.1555 60.5883L48.0449 61.2226L51.6238 60.9618L51.5621 60.7069C52.1376 60.3076 52.435 58.7318 52.7474 58.0522C52.6894 58.0821 52.1098 58.3398 52.0701 58.3486L52.2826 56.3237C51.947 56.8585 51.9818 57.2245 51.8277 57.9045C51.6604 58.6429 51.6117 58.9043 51.574 59.6158L48.4591 59.7788L48.1555 60.5883Z" fill="#6A9276"/>
<path fill-rule="evenodd" clip-rule="evenodd" d="M86.902 81.1304C86.2547 82.6573 88.4846 83.7347 89.0148 83.2354C89.789 82.5065 88.1786 80.7007 86.902 81.1304Z" fill="#FDFDFE"/>
<path fill-rule="evenodd" clip-rule="evenodd" d="M6.41406 59.0894C6.45127 59.0267 6.50946 58.8684 6.52277 58.8994L6.75639 57.4368C7.61978 57.2031 8.14814 57.0623 8.85414 57.3352C8.50251 58.7609 8.56744 57.3747 7.74527 58.7057L8.11003 59.7365C9.71078 59.7276 10.6475 58.6127 10.5435 57.388C10.4445 56.2228 9.90611 56.3729 9.77133 56.2942C10.4788 58.1615 10.2286 59.1431 8.15617 59.4247C7.99604 57.4108 9.07884 59.2087 9.15106 57.6409C9.21289 56.2986 7.29643 56.8141 6.46659 57.2243L6.41406 59.0894Z" fill="#A8A7A8"/>
<path fill-rule="evenodd" clip-rule="evenodd" d="M90.278 85.7384C90.2815 85.7362 94.16 83.9713 92.0674 82.585C91.33 83.9927 92.44 83.8307 90.6268 84.651C89.5932 85.1182 89.1898 85.8337 89.8403 86.7749C90.3379 86.1131 90.13 86.1322 90.278 85.7384Z" fill="#2D2E53"/>
<path fill-rule="evenodd" clip-rule="evenodd" d="M93.9304 57.5344C94.6694 58.1042 95.007 57.9885 95.9053 57.9564L95.985 56.4562L92.2662 55.8715L92.3913 55.1551C93.0174 54.8206 93.9746 55.0442 95.0937 55.1219C94.2507 54.6166 92.9372 54.4698 92.0094 54.7418C91.8393 55.6777 91.798 55.2008 92.0182 56.0817C93.1389 56.5681 94.8152 56.2493 95.6966 56.9562L95.6251 57.4646C94.8861 57.7433 94.8268 57.5295 93.9304 57.5344Z" fill="#A8A7A8"/>
<path fill-rule="evenodd" clip-rule="evenodd" d="M16.5781 80.1554C17.3709 79.8882 16.9887 80.1534 17.6111 79.4894C17.9522 79.1255 18.0957 78.8947 18.5699 78.7064C20.182 78.0659 22.89 79.6794 19.4971 82.4662C19.3284 82.6046 19.1637 82.7167 19.0304 82.8691C18.6091 83.3502 18.8876 82.9925 18.627 83.5025C19.368 83.0861 20.0377 82.413 20.6299 81.8447C21.432 81.0747 21.7047 80.1942 21.1796 79.1991C19.8951 76.7662 17.3629 79.0692 16.5781 80.1554Z" fill="#6A9276"/>
<path fill-rule="evenodd" clip-rule="evenodd" d="M97.0264 67.7334C96.8984 67.3607 96.2256 67.1485 95.7826 66.9969C94.7432 66.6412 94.5384 66.9175 94.4902 67.8889C95.7769 68.6791 97.4587 68.9926 97.0264 67.7334Z" fill="#FDFDFE"/>
<path fill-rule="evenodd" clip-rule="evenodd" d="M59.7599 5.86963C60.0473 5.53793 59.9056 5.93721 60.1845 5.15631L60.5368 2.94949C59.7382 2.16131 59.5334 2.88393 59.5589 1.73635C60.0727 1.51704 62.8503 1.65674 63.0827 2.73091C62.3714 3.41964 62.419 2.59029 61.651 3.36536L63.1979 3.45079L63.4336 2.07005C62.5014 1.5979 60.1407 1.06019 59.252 1.47987L60.1555 3.16808L59.7599 5.86963Z" fill="#A8A7A8"/>
<path fill-rule="evenodd" clip-rule="evenodd" d="M89.0508 23.9402L89.5558 24.8719C92.2481 24.6473 92.4265 21.1353 89.0508 23.9402Z" fill="#FDFDFE"/>
<path fill-rule="evenodd" clip-rule="evenodd" d="M98.7911 62.4212C97.9423 62.2037 97.2416 61.8919 96.2069 62.0057C96.1664 62.964 96.4438 63.3183 97.3258 63.4881C98.4037 63.6954 98.7192 63.4367 98.7911 62.4212Z" fill="#FDFDFE"/>
<path fill-rule="evenodd" clip-rule="evenodd" d="M86.0482 20.4837C87.1935 20.8984 87.4875 20.3538 88.2736 19.7824L88.1687 18.6146C87.42 18.4789 87.1995 18.7864 86.6741 19.2439C86.0644 19.7749 85.8736 19.6866 86.0482 20.4837Z" fill="#FDFDFE"/>
<path fill-rule="evenodd" clip-rule="evenodd" d="M44.498 34.434C45.058 34.6014 45.0167 34.5866 45.407 34.8487C45.159 35.4103 45.521 34.9077 45.1548 35.1309C45.6419 35.2773 45.6077 35.3074 45.7366 35.3978C45.8342 35.4657 45.9357 35.632 46.3352 35.9091L46.0948 35.0966C46.2575 34.9229 46.413 34.7691 46.6131 34.5516C46.7712 34.3799 46.9117 34.2023 47.1079 34.0019L47.163 33.3459C46.2101 33.4308 45.0921 33.739 44.498 34.434Z" fill="#A8A7A8"/>
<path fill-rule="evenodd" clip-rule="evenodd" d="M71.6684 63.4104C71.931 63.1293 71.8174 63.5634 72.0751 62.8062L72.4209 61.106C72.4951 59.5737 72.3859 60.467 72.1061 60.103C71.7366 60.3513 71.7253 59.8023 71.4277 61.5501C71.0034 64.0412 71.4231 63.139 71.6684 63.4104Z" fill="#4B7253"/>
<path fill-rule="evenodd" clip-rule="evenodd" d="M97.0254 57.9617C97.899 58.1227 98.6998 58.4355 99.4784 58.0497C99.5238 57.2287 99.6074 57.2356 98.7443 57.0529C98.0186 56.8996 97.7713 56.966 97.0956 57.1426L97.0254 57.9617Z" fill="#FDFDFE"/>
<path fill-rule="evenodd" clip-rule="evenodd" d="M51.5628 60.7069L51.5413 60.0233C49.9219 60.1235 48.7228 59.5376 48.4434 60.9218L51.5628 60.7069Z" fill="#222121"/>
<path fill-rule="evenodd" clip-rule="evenodd" d="M97.0254 57.9616C97.4248 58.7686 99.0243 58.7795 99.6956 58.268C100.273 57.4501 99.6588 56.7916 98.3829 56.6271C96.916 56.4377 97.1359 57.0255 97.0956 57.1425C97.7713 56.966 98.0186 56.8995 98.7443 57.0528C99.6074 57.2355 99.5238 57.2286 99.4784 58.0496C98.6998 58.4354 97.899 58.1226 97.0254 57.9616Z" fill="#6A9276"/>
<path fill-rule="evenodd" clip-rule="evenodd" d="M4.87431 38.1673L5.05961 38.1061L6.26169 38.1954C6.27901 37.1673 6.56407 37.4662 5.6839 37.14C5.05377 36.9064 4.94106 36.8784 4.29671 36.9471C4.1125 37.7917 4.20114 37.4589 4.87431 38.1673Z" fill="#FDFDFE"/>
<path fill-rule="evenodd" clip-rule="evenodd" d="M73.2341 62.2933C72.4557 63.4083 73.3437 63.8688 72.482 64.3123C72.1537 64.4815 70.6324 64.3965 70.2058 64.3602C70.0247 63.3396 70.3986 62.6228 70.5562 61.5173C70.0855 62.0041 70.1993 61.808 69.9879 62.8707C69.7988 63.82 69.6939 63.6254 69.9553 64.557C70.8745 64.7728 71.9664 64.7692 72.8757 64.4821L73.2341 62.2933Z" fill="#6A9276"/>
<path fill-rule="evenodd" clip-rule="evenodd" d="M46.3971 35.9389L46.3349 35.909C45.9354 35.632 45.8339 35.4657 45.7363 35.3977C45.6074 35.3074 45.6416 35.2773 45.1545 35.1309C44.7396 35.934 44.8016 35.6414 44.8227 36.6744L46.0538 36.7238C46.1049 36.6551 46.1979 36.5229 46.211 36.5582C46.224 36.5923 46.3126 36.4282 46.3266 36.3837C46.7135 35.1516 46.2338 37.1845 46.3971 35.9389Z" fill="#E9DBD3"/>
<path fill-rule="evenodd" clip-rule="evenodd" d="M4.87556 38.1673C4.20239 37.4589 4.11375 37.7917 4.29796 36.947C4.94231 36.8784 5.05502 36.9064 5.68515 37.1399C6.56532 37.4662 6.28026 37.1673 6.26293 38.1953L5.06086 38.1061C5.68661 38.6749 5.5542 38.5777 6.4548 38.5391L6.56897 37.1303C5.58301 36.7776 5.07253 36.5725 3.96146 36.7771C3.66181 37.9418 3.93611 37.9288 4.87556 38.1673Z" fill="#A8A7A8"/>
<path fill-rule="evenodd" clip-rule="evenodd" d="M79.3298 16.0511C77.8343 16.8966 78.6223 17.4234 77.2114 17.2664C77.0143 16.3648 77.2671 16.6859 77.6378 15.6775C77.4399 15.7986 77.0154 15.9731 76.8056 16.4334C76.5047 17.0945 76.6112 16.814 76.8443 17.4426L77.7823 17.7484C78.4972 17.3428 78.9191 16.8588 79.3298 16.0511Z" fill="#6A9276"/>
<path fill-rule="evenodd" clip-rule="evenodd" d="M9.39648 61.833L9.99688 61.6374C9.76234 60.6311 9.92192 60.5317 10.1515 60.1796C10.8083 60.3082 10.5324 60.1446 10.8357 60.6457C10.8712 60.7044 10.934 60.9184 10.9655 60.9796C11.0941 61.2288 11.1638 61.321 11.2486 61.4364C11.2157 60.7301 11.0396 60.2998 10.7649 59.8446C8.88692 59.7951 9.71583 60.639 9.39648 61.833Z" fill="#A8A7A8"/>
<path fill-rule="evenodd" clip-rule="evenodd" d="M91.8599 65.5704C91.6653 65.3737 91.776 65.3912 91.4406 65.2025C90.2794 64.5498 90.3706 65.3613 90.4313 63.903L91.4419 64.0811C91.1809 63.7726 91.6926 63.6813 90.4962 63.5698C89.8871 64.0933 90.0145 63.9352 89.9414 65.0056L91.8599 65.5704Z" fill="#A8A7A8"/>
<path fill-rule="evenodd" clip-rule="evenodd" d="M83.0898 22.4083C83.9188 22.1103 83.7661 22.1171 84.3541 21.5755L84.1491 22.1914C84.8653 21.8001 84.9468 21.9001 84.9556 20.9469C84.3069 20.9431 84.1478 21.0249 83.4168 21.9069C83.1433 22.2366 83.3656 21.9322 83.0898 22.4083Z" fill="#A8A7A8"/>
<path fill-rule="evenodd" clip-rule="evenodd" d="M93.4551 25.9772L94.6404 25.6391C94.7772 26.6408 94.6289 26.461 94.4128 26.7758L94.1361 27.0929L95.0682 26.7667C95.2036 25.7967 95.2037 26.0005 94.6566 25.4184C94.2276 25.4096 94.7142 25.1462 94.0316 25.4448C93.1085 25.8484 93.8191 25.5018 93.4551 25.9772Z" fill="#A8A7A8"/>
<path fill-rule="evenodd" clip-rule="evenodd" d="M92.6875 77.3531C93.1371 77.9245 92.773 77.6661 93.562 77.995C94.0523 77.6821 94.0902 77.6273 94.3297 77.0724C94.0658 76.4345 93.8358 76.319 93.1183 75.9802C93.421 76.4629 93.2011 76.1371 93.4878 76.4793C94.0116 77.1047 94.09 76.7464 93.7614 77.6069L92.6875 77.3531Z" fill="#A8A7A8"/>
</svg>
